<svg width="1066" height="1522" viewBox="0 0 1066 1522" fill="none" xmlns="http://www.w3.org/2000/svg">
<rect width="1066" height="1522" fill="white"/>
<path d="M274.237 1222C356.106 1222 422.474 1216.96 422.474 1210.73C422.474 1204.51 356.106 1199.47 274.237 1199.47C192.368 1199.47 126 1204.51 126 1210.73C126 1216.96 192.368 1222 274.237 1222Z" fill="#E6E6E6"/>
<path d="M239.31 818.935C265.107 807.955 297.239 814.912 328.619 819.74C328.911 813.893 332.45 806.777 328.743 802.697C324.238 797.741 324.653 792.534 327.363 787.296C334.295 773.903 324.364 759.653 314.337 747.803C312.077 745.139 309.221 743.045 306 741.692C302.78 740.34 299.286 739.766 295.802 740.019L277.228 741.346C272.708 741.669 268.395 743.366 264.865 746.209C261.335 749.052 258.757 752.907 257.476 757.256V757.256C253.041 763.292 250.667 769.312 252.162 775.3C245.518 779.843 244.402 785.327 247.388 791.509C249.919 795.401 249.892 799.19 247.272 802.874C243.832 807.571 241.197 812.808 239.476 818.371L239.31 818.935Z" fill="#2F2E41"/>
<path d="M852.37 1151.8H326.581C321.905 1151.8 317.421 1149.94 314.115 1146.64C310.808 1143.33 308.951 1138.84 308.951 1134.16C499.549 1111.99 686.566 1111.99 870 1134.16C870 1138.84 868.143 1143.33 864.836 1146.64C861.53 1149.94 857.046 1151.8 852.37 1151.8Z" fill="#2F2E41"/>
<path d="M870 1135.2L308.951 1134.16L373.974 1024.67L374.286 1024.16V782.861C374.285 779.932 374.862 777.032 375.982 774.326C377.101 771.62 378.743 769.162 380.813 767.091C382.882 765.02 385.339 763.377 388.043 762.256C390.747 761.136 393.645 760.559 396.572 760.559H779.268C782.194 760.559 785.093 761.136 787.797 762.256C790.501 763.377 792.957 765.02 795.027 767.091C797.097 769.162 798.738 771.62 799.858 774.326C800.978 777.032 801.554 779.932 801.554 782.861V1025.82L870 1135.2Z" fill="#3F3D56"/>
<path d="M396.064 776.126C394.139 776.128 392.294 776.894 390.933 778.256C389.572 779.618 388.807 781.464 388.804 783.39V1003.4C388.807 1005.33 389.572 1007.17 390.933 1008.53C392.294 1009.9 394.139 1010.66 396.064 1010.66H782.887C784.812 1010.66 786.657 1009.9 788.018 1008.53C789.379 1007.17 790.144 1005.33 790.147 1003.4V783.39C790.144 781.464 789.379 779.618 788.018 778.256C786.657 776.894 784.812 776.128 782.887 776.126H396.064Z" fill="white"/>
<path d="M397.685 1039.72C397.09 1039.72 396.508 1039.89 396.007 1040.22C395.506 1040.54 395.108 1040.99 394.858 1041.53L374.822 1085.12C374.604 1085.6 374.509 1086.12 374.545 1086.64C374.581 1087.16 374.747 1087.66 375.029 1088.1C375.31 1088.54 375.698 1088.9 376.156 1089.15C376.613 1089.4 377.127 1089.54 377.648 1089.54H798.991C799.521 1089.54 800.043 1089.4 800.506 1089.14C800.969 1088.88 801.358 1088.51 801.637 1088.06C801.916 1087.61 802.075 1087.09 802.098 1086.56C802.122 1086.03 802.01 1085.5 801.773 1085.03L779.995 1041.44C779.738 1040.92 779.341 1040.49 778.849 1040.19C778.358 1039.88 777.791 1039.72 777.213 1039.72H397.685Z" fill="#2F2E41"/>
<path d="M587.92 772.494C590.497 772.494 592.587 770.403 592.587 767.824C592.587 765.244 590.497 763.154 587.92 763.154C585.342 763.154 583.253 765.244 583.253 767.824C583.253 770.403 585.342 772.494 587.92 772.494Z" fill="white"/>
<path d="M546.505 1097.84C545.821 1097.84 545.157 1098.06 544.614 1098.48C544.071 1098.9 543.68 1099.48 543.502 1100.14L538.476 1118.82C538.351 1119.28 538.335 1119.77 538.428 1120.24C538.52 1120.7 538.72 1121.15 539.01 1121.53C539.301 1121.9 539.674 1122.21 540.103 1122.42C540.531 1122.63 541.002 1122.74 541.48 1122.74H637.059C637.555 1122.74 638.043 1122.63 638.484 1122.4C638.925 1122.17 639.305 1121.84 639.593 1121.44C639.88 1121.03 640.067 1120.57 640.138 1120.07C640.208 1119.58 640.16 1119.08 639.998 1118.61L633.536 1099.93C633.324 1099.32 632.927 1098.79 632.401 1098.42C631.874 1098.04 631.243 1097.84 630.596 1097.84H546.505Z" fill="#2F2E41"/>
<path d="M801.554 1020.52V1024.67H373.974L374.296 1024.16V1020.52H801.554Z" fill="#2F2E41"/>
<path d="M789.628 849.289C829.721 849.289 862.222 816.765 862.222 776.645C862.222 736.524 829.721 704 789.628 704C749.535 704 717.034 736.524 717.034 776.645C717.034 816.765 749.535 849.289 789.628 849.289Z" fill="#0D6EFD"/>
<path d="M819.703 808.297H759.553C758.453 808.296 757.399 807.858 756.621 807.08C755.843 806.302 755.406 805.247 755.405 804.146V767.824C755.406 766.723 755.844 765.668 756.621 764.89C757.399 764.111 758.453 763.674 759.553 763.672H819.703C820.802 763.674 821.857 764.111 822.635 764.89C823.412 765.668 823.85 766.723 823.851 767.824V804.146C823.85 805.247 823.412 806.302 822.635 807.08C821.857 807.858 820.802 808.296 819.703 808.297ZM759.553 767.824V804.146H819.706L819.703 767.824L759.553 767.824Z" fill="white"/>
<path d="M808.295 767.824H770.961V751.219C770.961 739.192 778.812 730.463 789.628 730.463C800.444 730.463 808.295 739.192 808.295 751.219L808.295 767.824ZM775.109 763.672H804.147V751.219C804.147 741.443 798.177 734.615 789.628 734.615C781.079 734.615 775.109 741.443 775.109 751.219L775.109 763.672Z" fill="white"/>
<path d="M789.628 789.098C791.919 789.098 793.776 787.24 793.776 784.947C793.776 782.654 791.919 780.796 789.628 780.796C787.337 780.796 785.48 782.654 785.48 784.947C785.48 787.24 787.337 789.098 789.628 789.098Z" fill="white"/>
<path d="M738.951 936.039H440C438.532 936.038 437.125 935.453 436.087 934.415C435.049 933.376 434.466 931.968 434.464 930.499V856.291C434.466 854.822 435.049 853.414 436.087 852.375C437.125 851.337 438.532 850.753 440 850.751H738.951C740.419 850.753 741.826 851.337 742.864 852.375C743.901 853.414 744.485 854.822 744.487 856.291V930.499C744.485 931.968 743.901 933.376 742.864 934.415C741.826 935.453 740.419 936.038 738.951 936.039V936.039ZM440 852.967C439.119 852.968 438.275 853.318 437.652 853.941C437.03 854.565 436.679 855.41 436.678 856.291V930.499C436.679 931.381 437.03 932.226 437.652 932.849C438.275 933.472 439.119 933.822 440 933.823H738.951C739.832 933.822 740.676 933.472 741.299 932.849C741.921 932.226 742.272 931.381 742.272 930.499V856.291C742.272 855.41 741.921 854.565 741.299 853.941C740.676 853.318 739.832 852.968 738.951 852.967L440 852.967Z" fill="#E6E6E6"/>
<path d="M486.451 913.115C498.906 913.115 509.002 903.011 509.002 890.548C509.002 878.084 498.906 867.981 486.451 867.981C473.996 867.981 463.9 878.084 463.9 890.548C463.9 903.011 473.996 913.115 486.451 913.115Z" fill="#E6E6E6"/>
<path d="M538.534 875.503C538.039 875.502 537.55 875.599 537.093 875.788C536.637 875.976 536.222 876.253 535.872 876.603C535.522 876.952 535.245 877.367 535.056 877.824C534.866 878.28 534.769 878.77 534.769 879.264C534.769 879.759 534.866 880.248 535.056 880.705C535.245 881.162 535.522 881.577 535.872 881.926C536.222 882.275 536.637 882.552 537.093 882.741C537.55 882.929 538.039 883.026 538.534 883.025H715.722C716.718 883.025 717.674 882.629 718.379 881.924C719.084 881.218 719.48 880.262 719.48 879.264C719.48 878.267 719.084 877.31 718.379 876.605C717.674 875.899 716.718 875.503 715.722 875.503H538.534Z" fill="#E6E6E6"/>
<path d="M538.533 898.07C537.537 898.07 536.581 898.466 535.876 899.172C535.171 899.877 534.775 900.834 534.775 901.831C534.775 902.829 535.171 903.785 535.876 904.491C536.581 905.196 537.537 905.592 538.533 905.592H614.778C615.775 905.592 616.731 905.196 617.436 904.491C618.14 903.785 618.537 902.829 618.537 901.831C618.537 900.834 618.14 899.877 617.436 899.172C616.731 898.466 615.775 898.07 614.778 898.07H538.533Z" fill="#E6E6E6"/>
<path d="M373.239 899.591L317.975 928.993L317.276 904.492C335.313 901.478 352.474 896.232 368.342 887.691L374.122 873.402C374.752 871.844 375.775 870.478 377.092 869.436C378.409 868.395 379.974 867.714 381.633 867.46C383.293 867.207 384.99 867.389 386.557 867.99C388.125 868.591 389.509 869.589 390.575 870.887V870.887C392.134 872.787 392.913 875.208 392.755 877.66C392.596 880.113 391.512 882.413 389.722 884.096L373.239 899.591Z" fill="#FFB8B8"/>
<path d="M238.208 1069.34C237.805 1067.86 237.719 1066.31 237.957 1064.8C238.195 1063.28 238.75 1061.84 239.587 1060.55L251.726 1041.91C254.598 1037.5 259.004 1034.31 264.089 1032.97C269.175 1031.63 274.577 1032.22 279.249 1034.64V1034.64C274.147 1043.33 274.858 1050.96 281.011 1057.58C271.459 1062.25 262.632 1068.27 254.801 1075.46C253.371 1076.44 251.73 1077.06 250.013 1077.27C248.295 1077.48 246.552 1077.28 244.929 1076.68C243.306 1076.08 241.849 1075.1 240.68 1073.83C239.511 1072.55 238.663 1071.01 238.208 1069.34V1069.34Z" fill="#2F2E41"/>
<path d="M375.756 1044.97C373.919 1048.03 371.326 1050.57 368.225 1052.34C365.125 1054.11 361.621 1055.06 358.051 1055.09L277.402 1055.7L273.905 1035.4L309.581 1024.9L279.501 1001.79L312.379 963.294L372.096 1018.99C375.586 1022.25 377.854 1026.6 378.52 1031.33C379.186 1036.06 378.211 1040.87 375.756 1044.97V1044.97Z" fill="#2F2E41"/>
<path d="M264.811 1183.8H245.923C228.965 1067.48 211.703 950.83 262.712 907.292L322.872 917.092L315.177 968.194L281.599 1006.7L264.811 1183.8Z" fill="#2F2E41"/>
<path d="M281.414 1210.15C279.935 1210.56 278.388 1210.64 276.874 1210.4C275.36 1210.17 273.913 1209.61 272.629 1208.77L252.121 1206.01C247.714 1203.14 244.531 1198.73 243.189 1193.64C241.847 1188.55 242.442 1183.15 244.858 1178.47C253.543 1183.58 261.162 1182.87 267.782 1176.71C272.46 1186.16 280.167 1185.58 287.528 1193.55C288.503 1194.98 289.122 1196.62 289.334 1198.34C289.545 1200.06 289.344 1201.8 288.745 1203.43C288.147 1205.05 287.17 1206.51 285.894 1207.68C284.619 1208.85 283.083 1209.7 281.414 1210.15V1210.15Z" fill="#2F2E41"/>
<path d="M309.581 829.589L274.604 821.189C280.413 809.29 280.892 796.05 278.102 781.988L301.886 781.287C302.631 798.774 304.886 815.111 309.581 829.589Z" fill="#FFB8B8"/>
<path d="M319.194 938.169C293.732 955.532 275.741 938.763 262.012 912.892C263.92 897.061 260.831 878.116 255.11 857.531C252.566 848.451 253.516 838.747 257.772 830.334C262.029 821.921 269.283 815.411 278.102 812.089V812.089L308.182 824.689C333.723 845.523 338.751 868.09 329.168 891.891L319.194 938.169Z" fill="#0D6EFD"/>
<path d="M245.923 847.09L217.942 861.79L267.609 891.191L274.52 908.25C274.981 909.388 275.206 910.609 275.18 911.837C275.154 913.066 274.879 914.276 274.371 915.394C273.863 916.513 273.132 917.516 272.224 918.342C271.316 919.169 270.249 919.802 269.088 920.202V920.202C267.769 920.658 266.362 920.801 264.978 920.622C263.594 920.442 262.27 919.944 261.111 919.167C259.951 918.39 258.987 917.355 258.294 916.143C257.6 914.931 257.197 913.575 257.115 912.18L256.416 900.292L193.29 879.445C191.163 878.743 189.224 877.565 187.619 876.002C186.014 874.439 184.786 872.53 184.027 870.421V870.421C182.921 867.348 182.865 863.994 183.867 860.884C184.869 857.775 186.873 855.086 189.565 853.238L240.327 818.389L245.923 847.09Z" fill="#FFB8B8"/>
<path d="M273.905 849.89C262.235 844.772 251.623 850.331 238.228 854.79L236.13 817.689C249.43 810.595 262.111 808.682 273.905 814.189L273.905 849.89Z" fill="#0D6EFD"/>
<path d="M287.865 799.665C300.198 799.665 310.196 789.66 310.196 777.318C310.196 764.976 300.198 754.971 287.865 754.971C275.531 754.971 265.533 764.976 265.533 777.318C265.533 789.66 275.531 799.665 287.865 799.665Z" fill="#FFB8B8"/>
<path d="M314.58 774.499C292.47 776.666 275.622 773.047 264.855 762.744V754.447H312.704L314.58 774.499Z" fill="#2F2E41"/>
<path d="M533 561.557C767.721 561.557 958 556.234 958 549.669C958 543.103 767.721 537.781 533 537.781C298.279 537.781 108 543.103 108 549.669C108 556.234 298.279 561.557 533 561.557Z" fill="#E6E6E6"/>
<path d="M759.495 420.853C758.958 420.861 758.422 420.868 757.878 420.868C757.334 420.868 756.797 420.861 756.26 420.853C727.811 420.206 707.19 402.431 712.439 383.781L725.238 338.283L728.473 326.771L785.813 327.749L789.297 339.011L803.015 383.34C808.822 402.093 788.202 420.206 759.495 420.853Z" fill="#3F3D56"/>
<path opacity="0.2" d="M789.297 339.011C779.52 344.6 768.429 347.479 757.169 347.351C745.908 347.223 734.885 344.093 725.238 338.283L728.473 326.771L785.813 327.749L789.297 339.011Z" fill="black"/>
<path d="M786.877 385.29C789.354 376.059 797.495 362.742 820.326 346.685C860.143 318.678 836.391 297.679 835.361 296.799C833.202 294.953 833.521 292.881 836.103 292.173C837.602 291.873 839.149 291.897 840.639 292.244C842.128 292.591 843.527 293.252 844.74 294.183C846.029 295.25 875.773 320.65 830.842 352.248C790.406 380.69 799.003 399.256 799.102 399.434C800.185 401.42 798.448 403.009 795.217 402.988C791.987 402.966 788.487 401.341 787.4 399.357C787.172 398.937 784.57 393.884 786.877 385.29Z" fill="#3F3D56"/>
<path d="M731.413 427.484C730.544 427.484 729.684 427.313 728.881 426.981C728.078 426.648 727.349 426.161 726.735 425.546C726.12 424.932 725.633 424.203 725.301 423.4C724.968 422.597 724.797 421.737 724.797 420.868V392.198C724.797 390.443 725.494 388.76 726.735 387.52C727.976 386.279 729.658 385.582 731.413 385.582C733.168 385.582 734.851 386.279 736.091 387.52C737.332 388.76 738.029 390.443 738.029 392.198V420.868C738.029 421.737 737.858 422.597 737.526 423.4C737.193 424.203 736.706 424.932 736.091 425.546C735.477 426.161 734.748 426.648 733.945 426.981C733.142 427.313 732.282 427.484 731.413 427.484V427.484Z" fill="#3F3D56"/>
<path d="M737.214 359.42C736.851 360.209 736.336 360.919 735.698 361.51C735.061 362.1 734.313 362.559 733.498 362.86C732.683 363.162 731.817 363.299 730.949 363.266C730.081 363.233 729.227 363.028 728.438 362.665L702.392 350.682C700.8 349.947 699.565 348.611 698.957 346.966C698.35 345.321 698.421 343.502 699.154 341.909C699.887 340.316 701.222 339.079 702.866 338.47C704.511 337.861 706.329 337.93 707.923 338.661L733.969 350.644C734.758 351.007 735.468 351.522 736.058 352.16C736.649 352.797 737.108 353.545 737.409 354.36C737.71 355.175 737.848 356.041 737.815 356.909C737.781 357.778 737.577 358.631 737.214 359.42V359.42Z" fill="#3F3D56"/>
<path d="M778.541 359.42C778.905 360.209 779.42 360.919 780.057 361.51C780.695 362.1 781.442 362.559 782.257 362.86C783.072 363.162 783.938 363.299 784.807 363.266C785.675 363.233 786.528 363.028 787.317 362.665L813.363 350.682C814.957 349.948 816.194 348.612 816.803 346.966C817.412 345.32 817.342 343.5 816.608 341.906C815.875 340.312 814.538 339.075 812.892 338.466C811.246 337.857 809.426 337.927 807.832 338.661L781.787 350.644C780.997 351.007 780.287 351.522 779.697 352.16C779.107 352.797 778.648 353.545 778.346 354.36C778.045 355.175 777.907 356.041 777.941 356.909C777.974 357.778 778.178 358.631 778.541 359.42V359.42Z" fill="#3F3D56"/>
<path d="M784.342 427.484C785.211 427.484 786.072 427.313 786.874 426.981C787.677 426.648 788.406 426.161 789.021 425.546C789.635 424.932 790.122 424.203 790.455 423.4C790.787 422.597 790.958 421.737 790.958 420.868V392.198C790.958 390.443 790.261 388.76 789.021 387.52C787.78 386.279 786.097 385.582 784.342 385.582C782.588 385.582 780.905 386.279 779.664 387.52C778.423 388.76 777.726 390.443 777.726 392.198V420.868C777.726 421.737 777.897 422.597 778.23 423.4C778.562 424.203 779.05 424.932 779.664 425.546C780.278 426.161 781.008 426.648 781.81 426.981C782.613 427.313 783.473 427.484 784.342 427.484V427.484Z" fill="#3F3D56"/>
<path d="M811.992 241.875C812.564 241.154 812.977 240.321 813.203 239.43C813.429 238.539 813.464 237.61 813.305 236.704L809.704 215.521L806.104 194.338C805.909 193.194 805.417 192.121 804.677 191.228C803.937 190.335 802.974 189.652 801.887 189.249C800.799 188.845 799.624 188.735 798.48 188.929C797.337 189.124 796.264 189.616 795.371 190.356L778.826 204.066L768.858 212.326C762.211 211.144 755.416 211.041 748.736 212.023L739.135 204.066L722.59 190.356C721.697 189.616 720.624 189.124 719.481 188.929C718.337 188.735 717.162 188.845 716.074 189.249C714.987 189.652 714.024 190.335 713.284 191.228C712.544 192.121 712.052 193.194 711.857 194.338L708.257 215.521L704.656 236.704C704.463 237.817 704.563 238.961 704.944 240.025C698.773 249.485 695.249 260.426 694.74 271.71C694.23 282.993 696.754 294.207 702.047 304.185C707.34 314.163 715.211 322.54 724.839 328.445C734.467 334.35 745.502 337.568 756.795 337.763C768.088 337.958 779.228 335.124 789.054 329.555C798.881 323.985 807.036 315.885 812.671 306.096C818.306 296.307 821.215 285.187 821.095 273.893C820.976 262.598 817.833 251.542 811.992 241.875V241.875Z" fill="#3F3D56"/>
<path d="M720.932 199.037C720.54 199.037 720.151 199.108 719.783 199.245C719.243 199.442 718.764 199.779 718.397 200.222C718.03 200.665 717.788 201.197 717.695 201.765L713.328 227.453C713.232 228.02 713.286 228.601 713.486 229.14C713.686 229.678 714.024 230.155 714.466 230.521C714.909 230.888 715.44 231.131 716.006 231.228C716.572 231.324 717.154 231.269 717.692 231.069L742.122 222.007C742.661 221.807 743.137 221.469 743.504 221.027C743.87 220.585 744.114 220.054 744.21 219.488C744.306 218.921 744.252 218.34 744.052 217.801C743.852 217.263 743.514 216.786 743.072 216.42L743.072 216.419L723.009 199.794C722.426 199.306 721.692 199.038 720.932 199.037V199.037Z" fill="#E6E6E6"/>
<path d="M797.029 199.037C796.269 199.038 795.534 199.306 794.952 199.794L774.889 216.42C774.447 216.786 774.109 217.263 773.909 217.801C773.709 218.34 773.655 218.921 773.751 219.488C773.847 220.054 774.091 220.585 774.457 221.027C774.824 221.469 775.3 221.807 775.839 222.007L800.269 231.069C800.807 231.269 801.389 231.324 801.955 231.228C802.521 231.131 803.052 230.888 803.495 230.521C803.937 230.155 804.275 229.678 804.475 229.14C804.674 228.601 804.729 228.02 804.633 227.453L800.266 201.765C800.173 201.197 799.931 200.665 799.564 200.222C799.197 199.779 798.718 199.442 798.178 199.245C797.81 199.108 797.421 199.037 797.029 199.037Z" fill="#E6E6E6"/>
<path d="M757.878 292.22C762.75 292.22 766.699 288.271 766.699 283.399C766.699 278.527 762.75 274.577 757.878 274.577C753.006 274.577 749.056 278.527 749.056 283.399C749.056 288.271 753.006 292.22 757.878 292.22Z" fill="#E6E6E6"/>
<path d="M757.878 281.193C761.126 281.193 763.759 280.206 763.759 278.988C763.759 277.77 761.126 276.783 757.878 276.783C754.63 276.783 751.997 277.77 751.997 278.988C751.997 280.206 754.63 281.193 757.878 281.193Z" fill="#3F3D56"/>
<path d="M753.467 288.545H761.553V298.469C761.553 299 761.449 299.526 761.246 300.016C761.042 300.507 760.745 300.952 760.369 301.328C759.994 301.703 759.548 302.001 759.057 302.204C758.567 302.407 758.041 302.512 757.51 302.512V302.512C756.438 302.512 755.409 302.086 754.651 301.328C753.893 300.57 753.467 299.541 753.467 298.469V288.545H753.467Z" fill="#FF6584"/>
<path d="M758.368 188.484C757.944 189.363 757.533 190.252 757.146 191.159C752.583 201.799 751.045 213.491 752.699 224.949C753.527 223.749 754.397 222.497 755.281 221.233C753.387 210.236 754.452 198.933 758.368 188.484V188.484Z" fill="#3F3D56"/>
<path d="M764.985 196.57C764.561 197.45 764.149 198.338 763.762 199.245C759.199 209.885 757.661 221.578 759.315 233.036C760.143 231.835 761.013 230.584 761.898 229.319C760.003 218.322 761.068 207.019 764.985 196.57V196.57Z" fill="#3F3D56"/>
<path d="M785.383 355.323L784.451 343.47L783.519 331.617C783.468 330.977 783.25 330.361 782.887 329.832C782.523 329.303 782.027 328.879 781.447 328.603C780.868 328.326 780.226 328.207 779.586 328.258C778.946 328.308 778.331 328.526 777.801 328.889L768.002 335.623L760.847 340.54C760.389 340.005 759.821 339.575 759.182 339.28C758.542 338.985 757.847 338.833 757.142 338.833C756.438 338.833 755.742 338.985 755.103 339.28C754.463 339.575 753.896 340.005 753.438 340.54L746.283 335.623L736.483 328.889C735.954 328.526 735.339 328.308 734.699 328.258C734.059 328.207 733.417 328.326 732.838 328.603C732.258 328.879 731.762 329.303 731.398 329.832C731.035 330.361 730.817 330.977 730.766 331.617L729.834 343.47L728.902 355.323C728.852 355.963 728.971 356.605 729.247 357.185C729.524 357.764 729.948 358.26 730.477 358.624C731.006 358.988 731.621 359.205 732.261 359.256C732.901 359.306 733.543 359.187 734.123 358.911L744.854 353.791L753.671 349.585C754.125 350.045 754.665 350.41 755.261 350.659C755.857 350.908 756.497 351.036 757.142 351.036C757.788 351.036 758.428 350.908 759.024 350.659C759.62 350.41 760.16 350.045 760.614 349.585L769.431 353.791L780.162 358.911C780.742 359.187 781.383 359.306 782.023 359.256C782.663 359.205 783.279 358.988 783.808 358.624C784.337 358.26 784.761 357.764 785.038 357.185C785.314 356.605 785.433 355.963 785.383 355.323Z" fill="#0D6EFD"/>
<path d="M746.116 276.047C747.334 276.047 748.321 275.06 748.321 273.842C748.321 272.624 747.334 271.637 746.116 271.637C744.898 271.637 743.91 272.624 743.91 273.842C743.91 275.06 744.898 276.047 746.116 276.047Z" fill="#E6E6E6"/>
<path d="M769.64 276.047C770.858 276.047 771.845 275.06 771.845 273.842C771.845 272.624 770.858 271.637 769.64 271.637C768.422 271.637 767.435 272.624 767.435 273.842C767.435 275.06 768.422 276.047 769.64 276.047Z" fill="#E6E6E6"/>
<path d="M331.166 401.369C331.703 401.377 332.239 401.384 332.783 401.384C333.327 401.384 333.864 401.377 334.401 401.369C362.85 400.723 383.471 382.947 378.222 364.297L365.423 318.8L362.189 307.287L304.848 308.265L301.364 319.527L287.646 363.856C281.839 382.609 302.459 400.722 331.166 401.369Z" fill="#3F3D56"/>
<path opacity="0.2" d="M301.364 319.527C311.141 325.116 322.232 327.995 333.492 327.867C344.753 327.739 355.776 324.609 365.423 318.8L362.189 307.287L304.848 308.265L301.364 319.527Z" fill="black"/>
<path d="M296.82 360.414C290.631 353.13 277.574 344.577 250.068 339.834C202.096 331.559 214.579 302.415 215.133 301.179C216.295 298.587 215.12 296.851 212.483 297.316C210.999 297.687 209.612 298.37 208.414 299.321C207.216 300.272 206.235 301.468 205.537 302.829C204.828 304.344 188.814 340.028 242.944 349.362C291.662 357.766 291.836 378.226 291.823 378.429C291.693 380.687 293.943 381.38 296.854 379.978C299.765 378.576 302.232 375.61 302.366 373.352C302.393 372.875 302.582 367.194 296.82 360.414Z" fill="#3F3D56"/>
<path d="M359.248 408C360.117 408 360.977 407.829 361.78 407.497C362.583 407.164 363.312 406.677 363.927 406.063C364.541 405.448 365.028 404.719 365.361 403.916C365.693 403.113 365.864 402.253 365.864 401.384V372.714C365.862 370.961 365.164 369.28 363.924 368.041C362.683 366.802 361.001 366.106 359.248 366.106C357.495 366.106 355.813 366.802 354.573 368.041C353.332 369.28 352.634 370.961 352.632 372.714V401.384C352.632 402.253 352.803 403.113 353.136 403.916C353.468 404.719 353.955 405.448 354.57 406.063C355.184 406.677 355.913 407.164 356.716 407.497C357.519 407.829 358.379 408 359.248 408V408Z" fill="#3F3D56"/>
<path d="M353.447 339.936C353.81 340.726 354.325 341.436 354.963 342.026C355.6 342.616 356.348 343.075 357.163 343.376C357.978 343.678 358.844 343.816 359.712 343.782C360.581 343.749 361.434 343.545 362.223 343.181L388.269 331.198C389.059 330.836 389.77 330.321 390.361 329.683C390.952 329.046 391.412 328.298 391.714 327.483C392.016 326.667 392.154 325.8 392.121 324.932C392.088 324.063 391.884 323.209 391.52 322.419C391.157 321.629 390.641 320.919 390.003 320.328C389.365 319.738 388.617 319.279 387.801 318.978C386.985 318.677 386.118 318.539 385.25 318.574C384.381 318.608 383.527 318.813 382.738 319.177L356.692 331.16C355.903 331.523 355.193 332.039 354.603 332.676C354.012 333.314 353.553 334.061 353.252 334.876C352.951 335.691 352.813 336.557 352.846 337.426C352.88 338.294 353.084 339.147 353.447 339.936V339.936Z" fill="#3F3D56"/>
<path d="M312.12 339.936C311.757 340.726 311.242 341.436 310.604 342.026C309.966 342.616 309.219 343.075 308.404 343.376C307.589 343.678 306.723 343.816 305.854 343.782C304.986 343.749 304.133 343.545 303.344 343.181L277.298 331.198C276.508 330.836 275.797 330.321 275.206 329.683C274.615 329.046 274.155 328.298 273.853 327.483C273.551 326.667 273.413 325.8 273.446 324.932C273.479 324.063 273.683 323.209 274.047 322.419C274.41 321.629 274.926 320.919 275.564 320.328C276.202 319.738 276.95 319.279 277.766 318.978C278.581 318.677 279.448 318.539 280.317 318.574C281.186 318.608 282.039 318.813 282.829 319.177L308.875 331.16C309.664 331.523 310.374 332.039 310.964 332.676C311.555 333.314 312.013 334.061 312.315 334.876C312.616 335.691 312.754 336.557 312.721 337.426C312.687 338.294 312.483 339.147 312.12 339.936Z" fill="#3F3D56"/>
<path d="M306.319 408C305.45 408 304.59 407.829 303.787 407.497C302.984 407.164 302.255 406.677 301.64 406.063C301.026 405.448 300.539 404.719 300.206 403.916C299.874 403.113 299.703 402.253 299.703 401.384V372.714C299.705 370.961 300.403 369.28 301.643 368.041C302.884 366.802 304.566 366.106 306.319 366.106C308.072 366.106 309.754 366.802 310.994 368.041C312.235 369.28 312.933 370.961 312.935 372.714V401.384C312.935 402.253 312.764 403.113 312.431 403.916C312.099 404.719 311.612 405.448 310.997 406.063C310.383 406.677 309.654 407.164 308.851 407.497C308.048 407.829 307.188 408 306.319 408V408Z" fill="#3F3D56"/>
<path d="M385.717 220.541C386.099 219.478 386.198 218.333 386.006 217.22L382.405 196.037L378.804 174.854C378.609 173.71 378.117 172.638 377.377 171.744C376.637 170.851 375.675 170.168 374.587 169.765C373.499 169.361 372.324 169.251 371.181 169.446C370.037 169.64 368.964 170.132 368.071 170.872L351.526 184.582L341.925 192.539C335.245 191.558 328.45 191.66 321.803 192.842L311.835 184.582L295.29 170.872C294.397 170.132 293.325 169.64 292.181 169.446C291.037 169.251 289.862 169.361 288.775 169.765C287.687 170.168 286.725 170.851 285.984 171.744C285.244 172.637 284.752 173.71 284.558 174.854L280.957 196.037L277.356 217.22C277.197 218.126 277.232 219.055 277.458 219.946C277.684 220.837 278.097 221.671 278.669 222.391C272.821 232.061 269.672 243.121 269.548 254.421C269.425 265.721 272.332 276.848 277.968 286.643C283.603 296.439 291.761 304.544 301.592 310.118C311.423 315.691 322.568 318.527 333.867 318.332C345.166 318.137 356.206 314.917 365.839 309.007C375.471 303.098 383.344 294.715 388.638 284.731C393.932 274.747 396.453 263.527 395.939 252.237C395.426 240.948 391.896 230.003 385.717 220.541H385.717Z" fill="#3F3D56"/>
<path d="M367.653 180.31L347.589 196.935L347.589 196.936C347.147 197.303 346.809 197.779 346.609 198.317C346.41 198.856 346.355 199.437 346.451 200.004C346.548 200.57 346.791 201.101 347.158 201.543C347.524 201.985 348 202.323 348.539 202.523L372.969 211.586C373.508 211.785 374.089 211.84 374.655 211.744C375.222 211.647 375.753 211.404 376.195 211.037C376.637 210.671 376.975 210.194 377.175 209.656C377.375 209.117 377.429 208.536 377.333 207.97L372.967 182.281C372.873 181.713 372.631 181.181 372.264 180.738C371.897 180.295 371.419 179.958 370.878 179.761C370.511 179.624 370.121 179.553 369.729 179.553C368.97 179.554 368.235 179.822 367.653 180.31V180.31Z" fill="#E6E6E6"/>
<path d="M292.483 179.761C291.943 179.958 291.465 180.295 291.098 180.738C290.731 181.181 290.488 181.713 290.395 182.281L286.028 207.97C285.932 208.536 285.987 209.117 286.186 209.656C286.386 210.194 286.724 210.671 287.167 211.037C287.609 211.404 288.14 211.647 288.706 211.744C289.272 211.84 289.854 211.785 290.392 211.586L314.823 202.523C315.361 202.323 315.837 201.985 316.204 201.543C316.57 201.101 316.814 200.57 316.91 200.004C317.006 199.437 316.952 198.856 316.752 198.317C316.553 197.779 316.215 197.303 315.772 196.936L295.709 180.31C295.127 179.822 294.392 179.554 293.632 179.553C293.24 179.553 292.851 179.624 292.483 179.761Z" fill="#E6E6E6"/>
<path d="M332.783 272.736C337.655 272.736 341.605 268.787 341.605 263.915C341.605 259.043 337.655 255.093 332.783 255.093C327.911 255.093 323.962 259.043 323.962 263.915C323.962 268.787 327.911 272.736 332.783 272.736Z" fill="#E6E6E6"/>
<path d="M332.783 261.709C336.031 261.709 338.664 260.722 338.664 259.504C338.664 258.286 336.031 257.299 332.783 257.299C329.535 257.299 326.902 258.286 326.902 259.504C326.902 260.722 329.535 261.709 332.783 261.709Z" fill="#3F3D56"/>
<path d="M333.151 283.028C332.62 283.028 332.094 282.924 331.604 282.72C331.113 282.517 330.667 282.219 330.292 281.844C329.917 281.469 329.619 281.023 329.416 280.532C329.212 280.042 329.108 279.516 329.108 278.985V269.061H337.194V278.985C337.194 279.516 337.09 280.042 336.886 280.532C336.683 281.023 336.385 281.469 336.01 281.844C335.635 282.219 335.189 282.517 334.698 282.72C334.208 282.924 333.682 283.028 333.151 283.028V283.028Z" fill="#FF6584"/>
<path d="M332.293 169C332.717 169.879 333.128 170.768 333.516 171.675C338.078 182.315 339.616 194.008 337.962 205.466C337.134 204.265 336.264 203.014 335.38 201.749C337.275 190.752 336.209 179.449 332.293 169V169Z" fill="#3F3D56"/>
<path d="M325.676 177.086C326.101 177.966 326.512 178.855 326.899 179.762C331.462 190.402 333 202.094 331.346 213.552C330.518 212.351 329.648 211.1 328.764 209.835C330.658 198.838 329.593 187.535 325.676 177.086V177.086Z" fill="#3F3D56"/>
<path d="M305.278 207.192L306.21 195.338L307.142 183.485C307.193 182.845 307.411 182.23 307.774 181.701C308.138 181.172 308.634 180.748 309.214 180.471C309.793 180.195 310.435 180.076 311.075 180.126C311.715 180.176 312.331 180.394 312.86 180.758L322.659 187.492L329.814 192.409C330.272 191.873 330.84 191.443 331.479 191.149C332.119 190.854 332.814 190.701 333.519 190.701C334.223 190.701 334.919 190.854 335.558 191.149C336.198 191.443 336.766 191.873 337.223 192.409L344.379 187.492L354.178 180.758C354.707 180.394 355.322 180.176 355.962 180.126C356.602 180.076 357.244 180.195 357.824 180.471C358.403 180.748 358.9 181.172 359.263 181.701C359.627 182.23 359.845 182.845 359.895 183.485L360.827 195.338L361.759 207.192C361.809 207.832 361.69 208.474 361.414 209.053C361.137 209.632 360.713 210.129 360.184 210.492C359.655 210.856 359.04 211.074 358.4 211.124C357.76 211.175 357.118 211.055 356.538 210.779L345.807 205.66L336.99 201.453C336.536 201.913 335.996 202.278 335.4 202.527C334.804 202.776 334.164 202.905 333.519 202.905C332.873 202.905 332.233 202.776 331.637 202.527C331.042 202.278 330.501 201.913 330.047 201.453L321.23 205.66L310.499 210.779C309.92 211.056 309.278 211.175 308.638 211.124C307.998 211.074 307.382 210.856 306.853 210.492C306.324 210.129 305.9 209.632 305.623 209.053C305.347 208.474 305.228 207.832 305.278 207.192V207.192Z" fill="#0D6EFD"/>
<path d="M342.34 254.358C342.34 255.576 343.328 254.358 344.546 254.358C345.764 254.358 346.751 255.576 346.751 254.358C346.75 253.774 346.517 253.214 346.103 252.802C345.69 252.389 345.13 252.157 344.546 252.157C343.961 252.157 343.401 252.389 342.988 252.802C342.574 253.214 342.341 253.774 342.34 254.358V254.358Z" fill="#E6E6E6"/>
<path d="M323.227 254.358C323.227 255.576 322.239 254.358 321.021 254.358C319.803 254.358 318.816 255.576 318.816 254.358C318.817 253.774 319.05 253.214 319.464 252.802C319.877 252.389 320.437 252.157 321.021 252.157C321.605 252.157 322.166 252.389 322.579 252.802C322.993 253.214 323.226 253.774 323.227 254.358V254.358Z" fill="#E6E6E6"/>
<path d="M567.907 420.872V406.854H497.816V407.73V420.872V533.895V547.914H511.834H567.907V533.895H511.834V420.872H567.907Z" fill="#3F3D56"/>
<path d="M602.077 406.854V547.914H672.169V406.854H602.077ZM658.151 533.895H616.096V420.872H658.151V533.895Z" fill="#0D6EFD"/>
<path d="M407.572 533.895V407.73H393.554V533.895V547.914H407.572H463.646V533.895H407.572Z" fill="#0D6EFD"/>
<path d="M362.013 420.872V406.854H291.921V407.73V420.872V469.937V483.955V533.895V547.914H305.939H362.013V533.895H305.939V483.955H362.013V469.937H305.939V420.872H362.013Z" fill="#3F3D56"/>
<path d="M910.481 420.872V406.854H840.389V407.73V420.872V469.937V483.955V533.895V547.914H854.408H910.481V533.895H854.408V483.955H910.481V469.937H854.408V420.872H910.481Z" fill="#0D6EFD"/>
<path d="M244.609 407.73V523.589L207.647 486.628L207.563 486.713L207.485 486.635L169.699 524.421V407.292H155.68V547.476H169.699V544.246L207.57 506.375L244.609 543.415V547.914H258.627V407.73H244.609Z" fill="#3F3D56"/>
<path d="M793.954 407.73V410.96L756.083 448.831L719.043 411.792V407.292H705.024V547.476H719.043V431.616L756.004 468.578L756.09 468.493L756.167 468.57L793.954 430.784V547.914H807.971V407.73H793.954Z" fill="#3F3D56"/>
<path d="M428.349 321.375C433.101 321.375 436.953 317.522 436.953 312.77C436.953 308.018 433.101 304.166 428.349 304.166C423.597 304.166 419.744 308.018 419.744 312.77C419.744 317.522 423.597 321.375 428.349 321.375Z" fill="#0D6EFD"/>
<path d="M216.106 416.98C220.858 416.98 224.71 413.127 224.71 408.375C224.71 403.623 220.858 399.771 216.106 399.771C211.354 399.771 207.501 403.623 207.501 408.375C207.501 413.127 211.354 416.98 216.106 416.98Z" fill="#0D6EFD"/>
<path d="M386.283 608.189C391.035 608.189 394.887 604.337 394.887 599.585C394.887 594.833 391.035 590.981 386.283 590.981C381.53 590.981 377.678 594.833 377.678 599.585C377.678 604.337 381.53 608.189 386.283 608.189Z" fill="#0D6EFD"/>
<path d="M602.35 347.188C607.102 347.188 610.954 343.336 610.954 338.584C610.954 333.831 607.102 329.979 602.35 329.979C597.598 329.979 593.745 333.831 593.745 338.584C593.745 343.336 597.598 347.188 602.35 347.188Z" fill="#0D6EFD"/>
<path d="M855.703 600.541C860.455 600.541 864.307 596.689 864.307 591.937C864.307 587.184 860.455 583.332 855.703 583.332C850.951 583.332 847.098 587.184 847.098 591.937C847.098 596.689 850.951 600.541 855.703 600.541Z" fill="#0D6EFD"/>
<path d="M864.307 374.913C869.059 374.913 872.912 371.061 872.912 366.309C872.912 361.557 869.059 357.705 864.307 357.705C859.555 357.705 855.703 361.557 855.703 366.309C855.703 371.061 859.555 374.913 864.307 374.913Z" fill="#0D6EFD"/>
<path d="M755.318 529.793C760.07 529.793 763.922 525.941 763.922 521.189C763.922 516.437 760.07 512.585 755.318 512.585C750.565 512.585 746.713 516.437 746.713 521.189C746.713 525.941 750.565 529.793 755.318 529.793Z" fill="#0D6EFD"/>
</svg>
