<svg width="1066" height="1522" viewBox="0 0 1066 1522" fill="none" xmlns="http://www.w3.org/2000/svg">
<rect width="1066" height="1522" fill="white"/>
<path d="M534.538 489.603C780.049 489.603 979.076 484.036 979.076 477.169C979.076 470.301 780.049 464.734 534.538 464.734C289.026 464.734 90 470.301 90 477.169C90 484.036 289.026 489.603 534.538 489.603Z" fill="#E6E6E6"/>
<path d="M771.445 342.431C770.884 342.439 770.322 342.447 769.753 342.447C769.184 342.447 768.623 342.439 768.062 342.431C738.304 341.755 716.736 323.162 722.226 303.654L735.613 256.066L738.996 244.024L798.973 245.047L802.617 256.827L816.965 303.193C823.04 322.808 801.472 341.755 771.445 342.431Z" fill="#3F3D56"/>
<path opacity="0.2" d="M802.617 256.827C792.391 262.672 780.79 265.684 769.012 265.55C757.233 265.416 745.704 262.142 735.613 256.066L738.996 244.024L798.973 245.047L802.617 256.827Z" fill="black"/>
<path d="M800.086 305.233C802.677 295.577 811.192 281.648 835.072 264.854C876.72 235.559 851.876 213.594 850.799 212.674C848.541 210.744 848.874 208.576 851.575 207.835C853.143 207.522 854.761 207.547 856.319 207.91C857.877 208.273 859.34 208.964 860.609 209.938C861.957 211.054 893.068 237.621 846.072 270.672C803.777 300.422 812.769 319.842 812.872 320.028C814.006 322.105 812.188 323.767 808.809 323.744C805.43 323.722 801.77 322.022 800.633 319.947C800.394 319.508 797.673 314.223 800.086 305.233Z" fill="#3F3D56"/>
<path d="M742.072 349.367C741.163 349.367 740.264 349.188 739.424 348.84C738.584 348.492 737.821 347.983 737.179 347.34C736.536 346.698 736.026 345.935 735.679 345.095C735.331 344.255 735.152 343.355 735.152 342.447V312.459C735.152 310.623 735.881 308.863 737.179 307.565C738.477 306.267 740.237 305.538 742.072 305.538C743.908 305.538 745.668 306.267 746.966 307.565C748.263 308.863 748.992 310.623 748.992 312.459V342.447C748.993 343.355 748.814 344.255 748.466 345.095C748.118 345.935 747.608 346.698 746.966 347.34C746.323 347.983 745.56 348.492 744.721 348.84C743.881 349.188 742.981 349.367 742.072 349.367V349.367Z" fill="#3F3D56"/>
<path d="M748.14 278.174C747.76 279 747.221 279.742 746.554 280.36C745.887 280.977 745.105 281.457 744.253 281.772C743.401 282.087 742.495 282.232 741.586 282.197C740.678 282.162 739.786 281.948 738.96 281.568L711.717 269.034C710.052 268.266 708.76 266.868 708.125 265.147C707.489 263.426 707.563 261.524 708.33 259.858C709.096 258.192 710.493 256.898 712.213 256.261C713.933 255.624 715.835 255.696 717.502 256.46L744.745 268.995C745.571 269.374 746.314 269.913 746.931 270.58C747.549 271.247 748.029 272.029 748.344 272.881C748.659 273.734 748.803 274.64 748.768 275.548C748.733 276.456 748.52 277.348 748.14 278.174V278.174Z" fill="#3F3D56"/>
<path d="M791.367 278.174C791.747 279 792.286 279.742 792.953 280.36C793.619 280.977 794.401 281.457 795.254 281.772C796.106 282.087 797.012 282.232 797.92 282.197C798.828 282.162 799.721 281.948 800.546 281.568L827.789 269.034C829.457 268.267 830.751 266.869 831.388 265.147C832.024 263.426 831.951 261.522 831.184 259.855C830.417 258.187 829.019 256.893 827.297 256.256C825.576 255.62 823.672 255.693 822.004 256.46L794.761 268.995C793.936 269.374 793.193 269.913 792.576 270.58C791.958 271.247 791.478 272.029 791.163 272.881C790.848 273.734 790.704 274.64 790.739 275.548C790.774 276.456 790.987 277.348 791.367 278.174V278.174Z" fill="#3F3D56"/>
<path d="M797.435 349.367C798.343 349.367 799.243 349.188 800.083 348.84C800.923 348.492 801.685 347.983 802.328 347.34C802.971 346.698 803.48 345.935 803.828 345.095C804.176 344.255 804.355 343.355 804.355 342.447V312.459C804.355 310.623 803.626 308.863 802.328 307.565C801.03 306.267 799.27 305.538 797.435 305.538C795.599 305.538 793.839 306.267 792.541 307.565C791.243 308.863 790.514 310.623 790.514 312.459V342.447C790.514 343.355 790.693 344.255 791.041 345.095C791.389 345.935 791.899 346.698 792.541 347.34C793.184 347.983 793.947 348.492 794.786 348.84C795.626 349.188 796.526 349.367 797.435 349.367V349.367Z" fill="#3F3D56"/>
<path d="M826.356 155.225C826.954 154.471 827.385 153.6 827.622 152.668C827.859 151.736 827.895 150.764 827.729 149.816L823.963 127.659L820.196 105.502C819.993 104.306 819.478 103.184 818.704 102.25C817.93 101.316 816.923 100.601 815.785 100.179C814.648 99.7573 813.419 99.6422 812.223 99.8456C811.026 100.049 809.904 100.564 808.97 101.338L791.665 115.678L781.239 124.318C774.286 123.081 767.179 122.974 760.192 124L750.149 115.678L732.844 101.338C731.909 100.564 730.787 100.049 729.591 99.8456C728.395 99.6422 727.166 99.7574 726.028 100.179C724.891 100.601 723.884 101.316 723.11 102.25C722.335 103.184 721.821 104.306 721.617 105.502L717.851 127.659L714.085 149.816C713.884 150.981 713.987 152.178 714.386 153.29C707.931 163.185 704.246 174.629 703.713 186.431C703.18 198.233 705.819 209.963 711.356 220.399C716.893 230.836 725.125 239.598 735.196 245.775C745.267 251.952 756.809 255.317 768.621 255.521C780.434 255.725 792.085 252.76 802.363 246.935C812.642 241.11 821.171 232.638 827.065 222.399C832.959 212.16 836.002 200.528 835.877 188.715C835.752 176.901 832.465 165.337 826.356 155.225V155.225Z" fill="#3F3D56"/>
<path d="M731.109 110.418C730.699 110.418 730.292 110.492 729.908 110.636C729.342 110.841 728.842 111.194 728.458 111.657C728.074 112.12 727.82 112.677 727.723 113.271L723.156 140.141C723.055 140.733 723.112 141.341 723.321 141.904C723.53 142.468 723.884 142.966 724.346 143.349C724.809 143.733 725.364 143.988 725.957 144.088C726.549 144.189 727.157 144.132 727.721 143.923L753.274 134.443C753.837 134.234 754.335 133.881 754.719 133.418C755.102 132.956 755.357 132.401 755.457 131.808C755.558 131.216 755.501 130.608 755.292 130.045C755.083 129.482 754.73 128.983 754.267 128.6L754.267 128.599L733.281 111.209C732.672 110.699 731.904 110.419 731.109 110.418V110.418Z" fill="#E6E6E6"/>
<path d="M810.704 110.418C809.91 110.419 809.141 110.699 808.532 111.209L787.546 128.6C787.084 128.983 786.73 129.482 786.522 130.045C786.313 130.608 786.256 131.216 786.356 131.808C786.457 132.401 786.712 132.956 787.095 133.418C787.478 133.881 787.977 134.234 788.54 134.443L814.093 143.923C814.656 144.132 815.265 144.189 815.857 144.088C816.449 143.988 817.005 143.733 817.467 143.349C817.93 142.966 818.284 142.468 818.493 141.904C818.701 141.341 818.759 140.733 818.658 140.141L814.091 113.271C813.993 112.677 813.74 112.12 813.356 111.657C812.972 111.194 812.471 110.841 811.906 110.636C811.522 110.492 811.115 110.418 810.704 110.418Z" fill="#E6E6E6"/>
<path d="M769.753 207.885C774.849 207.885 778.981 203.754 778.981 198.658C778.981 193.562 774.849 189.431 769.753 189.431C764.657 189.431 760.526 193.562 760.526 198.658C760.526 203.754 764.657 207.885 769.753 207.885Z" fill="#E6E6E6"/>
<path d="M769.753 196.351C773.151 196.351 775.905 195.318 775.905 194.044C775.905 192.77 773.151 191.737 769.753 191.737C766.356 191.737 763.602 192.77 763.602 194.044C763.602 195.318 766.356 196.351 769.753 196.351Z" fill="#3F3D56"/>
<path d="M765.14 204.04H773.598V214.421C773.598 214.976 773.489 215.526 773.276 216.039C773.064 216.552 772.752 217.018 772.359 217.411C771.967 217.804 771.5 218.115 770.987 218.328C770.474 218.54 769.924 218.65 769.369 218.65V218.65C768.247 218.65 767.172 218.204 766.379 217.411C765.585 216.618 765.14 215.542 765.14 214.421V204.04H765.14Z" fill="#FF6584"/>
<path d="M770.267 99.3795C769.823 100.299 769.393 101.229 768.988 102.178C764.216 113.307 762.606 125.537 764.337 137.522C765.202 136.265 766.112 134.957 767.038 133.634C765.056 122.131 766.17 110.309 770.267 99.3795V99.3795Z" fill="#3F3D56"/>
<path d="M777.187 107.838C776.744 108.757 776.313 109.687 775.908 110.636C771.136 121.765 769.527 133.995 771.257 145.98C772.123 144.724 773.033 143.415 773.958 142.092C771.976 130.59 773.091 118.767 777.187 107.838V107.838Z" fill="#3F3D56"/>
<path d="M798.523 273.889L797.548 261.491L796.573 249.093C796.521 248.423 796.293 247.779 795.912 247.226C795.532 246.673 795.013 246.229 794.407 245.94C793.801 245.651 793.129 245.526 792.46 245.579C791.79 245.632 791.147 245.86 790.593 246.24L780.344 253.283L772.859 258.426C772.381 257.866 771.786 257.417 771.118 257.108C770.449 256.8 769.721 256.64 768.984 256.64C768.248 256.64 767.52 256.8 766.851 257.108C766.182 257.417 765.588 257.866 765.11 258.426L757.625 253.283L747.376 246.24C746.822 245.859 746.179 245.632 745.509 245.579C744.84 245.526 744.168 245.651 743.562 245.94C742.956 246.229 742.437 246.673 742.057 247.226C741.676 247.779 741.448 248.423 741.396 249.093L740.421 261.491L739.446 273.889C739.393 274.558 739.518 275.23 739.807 275.836C740.096 276.442 740.54 276.961 741.093 277.341C741.646 277.722 742.29 277.949 742.96 278.002C743.629 278.055 744.3 277.93 744.906 277.641L756.131 272.286L765.354 267.887C765.828 268.367 766.393 268.749 767.017 269.01C767.64 269.27 768.309 269.405 768.984 269.405C769.66 269.405 770.329 269.27 770.952 269.01C771.575 268.749 772.141 268.367 772.615 267.887L781.838 272.286L793.062 277.641C793.668 277.93 794.34 278.055 795.009 278.002C795.679 277.949 796.322 277.722 796.876 277.341C797.429 276.961 797.873 276.442 798.162 275.836C798.451 275.23 798.576 274.558 798.523 273.889Z" fill="#0D6EFD"/>
<path d="M757.451 190.968C758.725 190.968 759.757 189.936 759.757 188.662C759.757 187.388 758.725 186.355 757.451 186.355C756.177 186.355 755.144 187.388 755.144 188.662C755.144 189.936 756.177 190.968 757.451 190.968Z" fill="#E6E6E6"/>
<path d="M782.056 190.968C783.33 190.968 784.363 189.936 784.363 188.662C784.363 187.388 783.33 186.355 782.056 186.355C780.782 186.355 779.75 187.388 779.75 188.662C779.75 189.936 780.782 190.968 782.056 190.968Z" fill="#E6E6E6"/>
<path d="M323.425 322.052C323.987 322.059 324.548 322.067 325.117 322.067C325.686 322.067 326.247 322.059 326.809 322.052C356.566 321.375 378.134 302.783 372.644 283.275L359.257 235.686L355.874 223.645L295.898 224.667L292.253 236.447L277.905 282.814C271.831 302.429 293.399 321.375 323.425 322.052Z" fill="#3F3D56"/>
<path opacity="0.2" d="M292.253 236.447C302.479 242.293 314.08 245.304 325.859 245.17C337.637 245.037 349.166 241.763 359.257 235.686L355.874 223.645L295.898 224.667L292.253 236.447Z" fill="black"/>
<path d="M287.5 279.214C281.026 271.595 267.37 262.649 238.599 257.688C188.422 249.032 201.479 218.548 202.058 217.256C203.273 214.545 202.044 212.728 199.286 213.215C197.734 213.602 196.283 214.318 195.03 215.312C193.777 216.307 192.751 217.557 192.021 218.981C191.279 220.566 174.529 257.891 231.148 267.654C282.105 276.444 282.287 297.844 282.273 298.056C282.138 300.419 284.491 301.143 287.536 299.677C290.58 298.211 293.161 295.108 293.301 292.746C293.329 292.247 293.527 286.305 287.5 279.214Z" fill="#3F3D56"/>
<path d="M352.798 328.987C353.707 328.987 354.607 328.808 355.447 328.461C356.286 328.113 357.049 327.603 357.692 326.961C358.334 326.318 358.844 325.555 359.192 324.715C359.54 323.876 359.719 322.976 359.719 322.067V292.079C359.716 290.245 358.986 288.487 357.689 287.191C356.391 285.895 354.632 285.167 352.798 285.167C350.964 285.167 349.205 285.895 347.908 287.191C346.61 288.487 345.88 290.245 345.878 292.079V322.067C345.878 322.976 346.057 323.876 346.405 324.715C346.752 325.555 347.262 326.318 347.905 326.961C348.547 327.603 349.31 328.113 350.15 328.461C350.99 328.808 351.89 328.987 352.798 328.987V328.987Z" fill="#3F3D56"/>
<path d="M346.731 257.794C347.11 258.62 347.649 259.363 348.316 259.98C348.983 260.598 349.765 261.078 350.617 261.393C351.47 261.708 352.376 261.852 353.284 261.817C354.192 261.782 355.084 261.569 355.91 261.189L383.153 248.655C383.98 248.275 384.723 247.737 385.342 247.07C385.96 246.403 386.441 245.621 386.757 244.768C387.073 243.915 387.217 243.009 387.182 242.1C387.148 241.191 386.934 240.298 386.554 239.472C386.174 238.646 385.635 237.903 384.967 237.285C384.3 236.668 383.517 236.188 382.664 235.873C381.811 235.558 380.904 235.414 379.995 235.45C379.087 235.485 378.194 235.7 377.368 236.081L350.125 248.615C349.299 248.995 348.557 249.534 347.939 250.201C347.322 250.867 346.842 251.649 346.527 252.502C346.211 253.354 346.067 254.26 346.102 255.168C346.137 256.076 346.351 256.969 346.731 257.794V257.794Z" fill="#3F3D56"/>
<path d="M303.503 257.794C303.124 258.62 302.585 259.363 301.918 259.98C301.251 260.598 300.469 261.078 299.617 261.393C298.764 261.708 297.858 261.852 296.95 261.817C296.042 261.782 295.15 261.569 294.324 261.189L267.081 248.655C266.254 248.275 265.511 247.737 264.892 247.07C264.274 246.403 263.793 245.621 263.477 244.768C263.162 243.915 263.017 243.009 263.052 242.1C263.086 241.191 263.3 240.298 263.68 239.472C264.06 238.646 264.599 237.903 265.267 237.285C265.934 236.668 266.717 236.188 267.57 235.873C268.423 235.558 269.33 235.414 270.239 235.45C271.148 235.485 272.04 235.7 272.866 236.081L300.109 248.615C300.935 248.995 301.677 249.534 302.295 250.201C302.912 250.867 303.392 251.649 303.707 252.502C304.023 253.354 304.167 254.26 304.132 255.168C304.097 256.076 303.883 256.969 303.503 257.794Z" fill="#3F3D56"/>
<path d="M297.436 328.987C296.527 328.987 295.627 328.808 294.788 328.461C293.948 328.113 293.185 327.603 292.542 326.961C291.9 326.318 291.39 325.555 291.042 324.715C290.694 323.876 290.515 322.976 290.516 322.067V292.079C290.518 290.245 291.248 288.487 292.545 287.191C293.843 285.895 295.602 285.167 297.436 285.167C299.27 285.167 301.029 285.895 302.326 287.191C303.624 288.487 304.354 290.245 304.356 292.079V322.067C304.356 322.976 304.177 323.876 303.829 324.715C303.482 325.555 302.972 326.318 302.329 326.961C301.687 327.603 300.924 328.113 300.084 328.461C299.245 328.808 298.345 328.987 297.436 328.987V328.987Z" fill="#3F3D56"/>
<path d="M380.484 132.91C380.883 131.798 380.987 130.601 380.786 129.437L377.019 107.28L373.253 85.1228C373.05 83.9264 372.535 82.8047 371.761 81.8703C370.986 80.936 369.98 80.2219 368.842 79.7999C367.704 79.3778 366.476 79.2627 365.279 79.466C364.083 79.6694 362.961 80.1841 362.027 80.9583L344.722 95.2986L334.679 103.621C327.691 102.595 320.585 102.702 313.632 103.938L303.206 95.2986L285.9 80.9583C284.966 80.184 283.844 79.6694 282.648 79.466C281.452 79.2626 280.223 79.3778 279.085 79.7998C277.947 80.2219 276.941 80.936 276.166 81.8703C275.392 82.8047 274.878 83.9264 274.674 85.1227L270.908 107.28L267.141 129.437C266.975 130.384 267.012 131.356 267.248 132.288C267.485 133.22 267.917 134.092 268.515 134.845C262.398 144.96 259.104 156.529 258.975 168.348C258.846 180.168 261.887 191.806 267.781 202.051C273.676 212.297 282.209 220.776 292.492 226.605C302.775 232.434 314.432 235.401 326.25 235.197C338.069 234.993 349.617 231.625 359.692 225.444C369.767 219.263 378.002 210.494 383.539 200.051C389.076 189.608 391.713 177.872 391.176 166.064C390.639 154.256 386.947 142.808 380.484 132.91H380.484Z" fill="#3F3D56"/>
<path d="M361.589 90.8298L340.604 108.22L340.603 108.22C340.141 108.604 339.787 109.102 339.578 109.665C339.37 110.228 339.313 110.837 339.413 111.429C339.514 112.021 339.769 112.576 340.152 113.039C340.535 113.501 341.034 113.855 341.597 114.064L367.15 123.543C367.713 123.752 368.322 123.809 368.914 123.709C369.506 123.608 370.062 123.353 370.524 122.97C370.987 122.587 371.34 122.088 371.549 121.525C371.758 120.962 371.815 120.353 371.715 119.761L367.147 92.8914C367.05 92.2978 366.796 91.7408 366.412 91.2777C366.029 90.8145 365.528 90.4619 364.963 90.2562C364.579 90.1125 364.172 90.0386 363.761 90.038C362.967 90.0395 362.198 90.3197 361.589 90.8298V90.8298Z" fill="#E6E6E6"/>
<path d="M282.964 90.2562C282.399 90.4619 281.899 90.8145 281.515 91.2776C281.131 91.7408 280.877 92.2978 280.78 92.8914L276.213 119.761C276.112 120.353 276.169 120.962 276.378 121.525C276.587 122.088 276.94 122.587 277.403 122.97C277.866 123.353 278.421 123.608 279.013 123.709C279.606 123.809 280.214 123.752 280.777 123.543L306.331 114.064C306.894 113.855 307.392 113.501 307.775 113.039C308.159 112.576 308.413 112.021 308.514 111.429C308.615 110.837 308.558 110.228 308.349 109.665C308.14 109.102 307.786 108.604 307.324 108.22L286.338 90.8298C285.729 90.3197 284.96 90.0395 284.166 90.038C283.756 90.0386 283.349 90.1125 282.964 90.2562Z" fill="#E6E6E6"/>
<path d="M325.117 187.505C330.213 187.505 334.344 183.374 334.344 178.278C334.344 173.182 330.213 169.051 325.117 169.051C320.021 169.051 315.89 173.182 315.89 178.278C315.89 183.374 320.021 187.505 325.117 187.505Z" fill="#E6E6E6"/>
<path d="M325.117 175.971C328.514 175.971 331.268 174.939 331.268 173.665C331.268 172.391 328.514 171.358 325.117 171.358C321.72 171.358 318.966 172.391 318.966 173.665C318.966 174.939 321.72 175.971 325.117 175.971Z" fill="#3F3D56"/>
<path d="M325.501 198.27C324.946 198.27 324.396 198.161 323.883 197.948C323.37 197.736 322.904 197.424 322.511 197.032C322.118 196.639 321.807 196.173 321.594 195.66C321.382 195.146 321.272 194.597 321.272 194.041V183.661H329.731V194.041C329.731 194.597 329.621 195.146 329.409 195.66C329.196 196.173 328.885 196.639 328.492 197.032C328.099 197.424 327.633 197.736 327.12 197.948C326.607 198.161 326.057 198.27 325.501 198.27V198.27Z" fill="#FF6584"/>
<path d="M324.604 79C325.047 79.9198 325.478 80.8495 325.883 81.7982C330.655 92.9273 332.264 105.157 330.534 117.142C329.668 115.886 328.758 114.577 327.833 113.254C329.815 101.752 328.7 89.9294 324.604 79V79Z" fill="#3F3D56"/>
<path d="M317.683 87.4582C318.127 88.378 318.558 89.3077 318.963 90.2564C323.735 101.386 325.344 113.615 323.613 125.6C322.748 124.344 321.838 123.036 320.912 121.712C322.894 110.21 321.78 98.3875 317.683 87.4582V87.4582Z" fill="#3F3D56"/>
<path d="M296.347 118.947L297.322 106.549L298.297 94.1512C298.35 93.4818 298.578 92.838 298.958 92.2846C299.338 91.7312 299.858 91.2876 300.464 90.9985C301.07 90.7094 301.741 90.5849 302.411 90.6375C303.08 90.6902 303.724 90.9181 304.277 91.2984L314.527 98.3417L322.011 103.485C322.49 102.925 323.084 102.475 323.753 102.167C324.422 101.858 325.149 101.699 325.886 101.699C326.623 101.699 327.35 101.858 328.019 102.167C328.688 102.475 329.282 102.925 329.761 103.485L337.245 98.3417L347.495 91.2984C348.048 90.9181 348.692 90.6902 349.361 90.6375C350.031 90.5849 350.702 90.7094 351.308 90.9985C351.914 91.2876 352.434 91.7312 352.814 92.2846C353.194 92.838 353.422 93.4818 353.475 94.1512L354.45 106.549L355.425 118.947C355.477 119.617 355.353 120.288 355.064 120.894C354.774 121.5 354.331 122.02 353.778 122.4C353.224 122.78 352.58 123.008 351.911 123.061C351.242 123.113 350.57 122.989 349.964 122.7L338.739 117.345L329.517 112.945C329.042 113.426 328.477 113.808 327.854 114.068C327.23 114.329 326.562 114.463 325.886 114.463C325.21 114.463 324.542 114.329 323.918 114.068C323.295 113.808 322.73 113.426 322.255 112.945L313.033 117.345L301.808 122.7C301.202 122.989 300.531 123.113 299.861 123.061C299.192 123.008 298.548 122.78 297.995 122.4C297.441 122.02 296.998 121.5 296.708 120.894C296.419 120.288 296.295 119.617 296.347 118.947V118.947Z" fill="#0D6EFD"/>
<path d="M335.113 168.282C335.113 169.556 336.146 168.282 337.42 168.282C338.694 168.282 339.727 169.556 339.727 168.282C339.725 167.671 339.482 167.086 339.049 166.654C338.617 166.223 338.031 165.98 337.42 165.98C336.809 165.98 336.223 166.223 335.79 166.654C335.358 167.086 335.114 167.671 335.113 168.282V168.282Z" fill="#E6E6E6"/>
<path d="M315.121 168.282C315.121 169.556 314.088 168.282 312.814 168.282C311.54 168.282 310.507 169.556 310.507 168.282C310.509 167.671 310.752 167.086 311.185 166.654C311.617 166.223 312.203 165.98 312.814 165.98C313.425 165.98 314.011 166.223 314.444 166.654C314.876 167.086 315.12 167.671 315.121 168.282V168.282Z" fill="#E6E6E6"/>
<path d="M571.05 342.451V327.788H497.736V328.705V342.451V460.67V475.333H512.399H571.05V460.67H512.399V342.451H571.05Z" fill="#3F3D56"/>
<path d="M606.791 327.788V475.333H680.105V327.788H606.791ZM665.442 460.67H621.453V342.451H665.442V460.67Z" fill="#0D6EFD"/>
<path d="M403.344 460.67V328.705H388.681V460.67V475.333H403.344H461.995V460.67H403.344Z" fill="#0D6EFD"/>
<path d="M355.69 342.451V327.788H282.376V328.705V342.451V393.771V408.434V460.67V475.333H297.039H355.69V460.67H297.039V408.434H355.69V393.771H297.039V342.451H355.69Z" fill="#3F3D56"/>
<path d="M929.372 342.451V327.788H856.058V328.705V342.451V393.771V408.434V460.67V475.333H870.721H929.372V460.67H870.721V408.434H929.372V393.771H870.721V342.451H929.372Z" fill="#0D6EFD"/>
<path d="M232.889 328.705V449.89L194.228 411.23L194.14 411.319L194.058 411.237L154.535 450.76V328.247H139.872V474.875H154.535V471.496L194.147 431.884L232.889 470.627V475.333H247.552V328.705H232.889Z" fill="#3F3D56"/>
<path d="M807.488 328.705V332.083L767.876 371.695L729.133 332.953V328.247H714.47V474.875H729.133V353.689L767.794 392.35L767.883 392.261L767.964 392.342L807.488 352.819V475.333H822.15V328.705H807.488Z" fill="#3F3D56"/>
<path d="M425.076 238.38C430.046 238.38 434.076 234.35 434.076 229.38C434.076 224.409 430.046 220.38 425.076 220.38C420.105 220.38 416.076 224.409 416.076 229.38C416.076 234.35 420.105 238.38 425.076 238.38Z" fill="#0D6EFD"/>
<path d="M203.076 338.38C208.046 338.38 212.076 334.35 212.076 329.38C212.076 324.409 208.046 320.38 203.076 320.38C198.105 320.38 194.076 324.409 194.076 329.38C194.076 334.35 198.105 338.38 203.076 338.38Z" fill="#0D6EFD"/>
<path d="M381.076 538.38C386.046 538.38 390.076 534.35 390.076 529.38C390.076 524.409 386.046 520.38 381.076 520.38C376.105 520.38 372.076 524.409 372.076 529.38C372.076 534.35 376.105 538.38 381.076 538.38Z" fill="#0D6EFD"/>
<path d="M607.076 265.38C612.046 265.38 616.076 261.35 616.076 256.38C616.076 251.409 612.046 247.38 607.076 247.38C602.105 247.38 598.076 251.409 598.076 256.38C598.076 261.35 602.105 265.38 607.076 265.38Z" fill="#0D6EFD"/>
<path d="M872.076 530.38C877.046 530.38 881.076 526.35 881.076 521.38C881.076 516.409 877.046 512.38 872.076 512.38C867.105 512.38 863.076 516.409 863.076 521.38C863.076 526.35 867.105 530.38 872.076 530.38Z" fill="#0D6EFD"/>
<path d="M881.076 294.38C886.046 294.38 890.076 290.35 890.076 285.38C890.076 280.409 886.046 276.38 881.076 276.38C876.105 276.38 872.076 280.409 872.076 285.38C872.076 290.35 876.105 294.38 881.076 294.38Z" fill="#0D6EFD"/>
<path d="M767.076 456.38C772.046 456.38 776.076 452.35 776.076 447.38C776.076 442.409 772.046 438.38 767.076 438.38C762.105 438.38 758.076 442.409 758.076 447.38C758.076 452.35 762.105 456.38 767.076 456.38Z" fill="#0D6EFD"/>
<path d="M863.163 1369.22H206.837C195.344 1369.22 183.999 1365.91 173.635 1359.53C163.271 1353.15 154.153 1343.87 146.952 1332.37C139.752 1320.87 134.652 1307.44 132.029 1293.07C129.405 1278.7 129.325 1263.76 131.794 1249.35L161.11 1078.24H908.89L938.206 1249.35C940.675 1263.76 940.595 1278.7 937.971 1293.07C935.348 1307.44 930.248 1320.87 923.048 1332.37C915.847 1343.87 906.729 1353.15 896.365 1359.53C886.001 1365.91 874.656 1369.22 863.163 1369.22V1369.22ZM162.914 1081.12L133.985 1249.97C131.588 1263.96 131.666 1278.47 134.213 1292.41C136.76 1306.36 141.71 1319.4 148.701 1330.57C155.691 1341.73 164.543 1350.74 174.604 1356.93C184.665 1363.12 195.68 1366.34 206.837 1366.34H863.163C874.32 1366.34 885.335 1363.12 895.396 1356.93C905.457 1350.74 914.309 1341.73 921.299 1330.57C928.29 1319.4 933.24 1306.36 935.787 1292.41C938.334 1278.47 938.412 1263.96 936.015 1249.97L907.086 1081.12H162.914Z" fill="#F2F2F2"/>
<path d="M779.825 712.895L814.253 706.306L808.815 675.553L788.174 688.901L745.591 668.292C744.984 666.281 743.935 664.54 742.571 663.281C741.207 662.022 739.587 661.3 737.909 661.202C736.231 661.105 734.567 661.637 733.12 662.733C731.673 663.829 730.506 665.443 729.761 667.376C729.016 669.309 728.724 671.479 728.923 673.621C729.122 675.763 729.801 677.785 730.879 679.439C731.957 681.094 733.386 682.31 734.993 682.939C736.6 683.569 738.314 683.584 739.928 682.984L779.825 712.895Z" fill="#FFB6B6"/>
<path d="M849.8 689.905C847.138 702.862 785.805 717.477 785.836 714.674C785.923 706.707 789.867 689.991 787.614 685.655C786.326 683.174 803.67 676.837 803.67 676.837C803.67 676.837 813.242 672.106 825.652 666.332C829.137 664.616 832.904 664.06 836.601 664.716C840.298 665.372 843.806 667.218 846.798 670.083C846.798 670.083 852.461 676.948 849.8 689.905Z" fill="#0D6EFD"/>
<path d="M256.477 1229.48H235.163C230.403 1229.48 225.838 1231.91 222.472 1236.23C219.106 1240.56 217.215 1246.42 217.215 1252.53C217.215 1258.64 219.106 1264.51 222.472 1268.83C225.838 1273.15 230.403 1275.58 235.163 1275.58H256.477C261.237 1275.58 265.802 1273.15 269.168 1268.83C272.534 1264.51 274.425 1258.64 274.425 1252.53C274.425 1246.42 272.534 1240.56 269.168 1236.23C265.802 1231.91 261.237 1229.48 256.477 1229.48Z" fill="#E6E6E6"/>
<path d="M324.905 1229.48H303.591C298.831 1229.48 294.266 1231.91 290.9 1236.23C287.534 1240.56 285.643 1246.42 285.643 1252.53C285.643 1258.64 287.534 1264.51 290.9 1268.83C294.266 1273.15 298.831 1275.58 303.591 1275.58H324.905C329.665 1275.58 334.23 1273.15 337.596 1268.83C340.962 1264.51 342.853 1258.64 342.853 1252.53C342.853 1246.42 340.962 1240.56 337.596 1236.23C334.23 1231.91 329.665 1229.48 324.905 1229.48Z" fill="#E6E6E6"/>
<path d="M393.333 1229.48H372.019C367.259 1229.48 362.694 1231.91 359.328 1236.23C355.962 1240.56 354.071 1246.42 354.071 1252.53C354.071 1258.64 355.962 1264.51 359.328 1268.83C362.694 1273.15 367.259 1275.58 372.019 1275.58H393.333C398.093 1275.58 402.658 1273.15 406.024 1268.83C409.39 1264.51 411.281 1258.64 411.281 1252.53C411.281 1246.42 409.39 1240.56 406.024 1236.23C402.658 1231.91 398.093 1229.48 393.333 1229.48Z" fill="#E6E6E6"/>
<path d="M461.76 1229.48H440.447C435.687 1229.48 431.121 1231.91 427.755 1236.23C424.39 1240.56 422.499 1246.42 422.499 1252.53C422.499 1258.64 424.39 1264.51 427.755 1268.83C431.121 1273.15 435.687 1275.58 440.447 1275.58H461.76C466.521 1275.58 471.086 1273.15 474.452 1268.83C477.818 1264.51 479.709 1258.64 479.709 1252.53C479.709 1246.42 477.818 1240.56 474.452 1236.23C471.086 1231.91 466.521 1229.48 461.76 1229.48Z" fill="#E6E6E6"/>
<path d="M530.188 1229.48H508.875C504.115 1229.48 499.549 1231.91 496.183 1236.23C492.817 1240.56 490.926 1246.42 490.926 1252.53C490.926 1258.64 492.817 1264.51 496.183 1268.83C499.549 1273.15 504.115 1275.58 508.875 1275.58H530.188C534.948 1275.58 539.514 1273.15 542.88 1268.83C546.246 1264.51 548.137 1258.64 548.137 1252.53C548.137 1246.42 546.246 1240.56 542.88 1236.23C539.514 1231.91 534.948 1229.48 530.188 1229.48Z" fill="#E6E6E6"/>
<path d="M598.616 1229.48H577.303C572.542 1229.48 567.977 1231.91 564.611 1236.23C561.245 1240.56 559.354 1246.42 559.354 1252.53C559.354 1258.64 561.245 1264.51 564.611 1268.83C567.977 1273.15 572.542 1275.58 577.303 1275.58H598.616C603.376 1275.58 607.942 1273.15 611.308 1268.83C614.673 1264.51 616.564 1258.64 616.564 1252.53C616.564 1246.42 614.673 1240.56 611.308 1236.23C607.942 1231.91 603.376 1229.48 598.616 1229.48Z" fill="#E6E6E6"/>
<path d="M667.044 1229.48H645.73C640.97 1229.48 636.405 1231.91 633.039 1236.23C629.673 1240.56 627.782 1246.42 627.782 1252.53C627.782 1258.64 629.673 1264.51 633.039 1268.83C636.405 1273.15 640.97 1275.58 645.73 1275.58H667.044C671.804 1275.58 676.369 1273.15 679.735 1268.83C683.101 1264.51 684.992 1258.64 684.992 1252.53C684.992 1246.42 683.101 1240.56 679.735 1236.23C676.369 1231.91 671.804 1229.48 667.044 1229.48Z" fill="#E6E6E6"/>
<path d="M735.472 1229.48H714.158C709.398 1229.48 704.833 1231.91 701.467 1236.23C698.101 1240.56 696.21 1246.42 696.21 1252.53C696.21 1258.64 698.101 1264.51 701.467 1268.83C704.833 1273.15 709.398 1275.58 714.158 1275.58H735.472C740.232 1275.58 744.797 1273.15 748.163 1268.83C751.529 1264.51 753.42 1258.64 753.42 1252.53C753.42 1246.42 751.529 1240.56 748.163 1236.23C744.797 1231.91 740.232 1229.48 735.472 1229.48Z" fill="#E6E6E6"/>
<path d="M803.9 1229.48H782.586C777.826 1229.48 773.261 1231.91 769.895 1236.23C766.529 1240.56 764.638 1246.42 764.638 1252.53C764.638 1258.64 766.529 1264.51 769.895 1268.83C773.261 1273.15 777.826 1275.58 782.586 1275.58H803.9C808.66 1275.58 813.225 1273.15 816.591 1268.83C819.957 1264.51 821.848 1258.64 821.848 1252.53C821.848 1246.42 819.957 1240.56 816.591 1236.23C813.225 1231.91 808.66 1229.48 803.9 1229.48Z" fill="#E6E6E6"/>
<path d="M256.477 1132.97H235.163C230.403 1132.97 225.838 1135.4 222.472 1139.72C219.106 1144.04 217.215 1149.91 217.215 1156.02C217.215 1162.13 219.106 1167.99 222.472 1172.32C225.838 1176.64 230.403 1179.07 235.163 1179.07H256.477C261.237 1179.07 265.802 1176.64 269.168 1172.32C272.534 1167.99 274.425 1162.13 274.425 1156.02C274.425 1149.91 272.534 1144.04 269.168 1139.72C265.802 1135.4 261.237 1132.97 256.477 1132.97Z" fill="#E6E6E6"/>
<path d="M324.905 1132.97H303.591C298.831 1132.97 294.266 1135.4 290.9 1139.72C287.534 1144.04 285.643 1149.91 285.643 1156.02C285.643 1162.13 287.534 1167.99 290.9 1172.32C294.266 1176.64 298.831 1179.07 303.591 1179.07H324.905C329.665 1179.07 334.23 1176.64 337.596 1172.32C340.962 1167.99 342.853 1162.13 342.853 1156.02C342.853 1149.91 340.962 1144.04 337.596 1139.72C334.23 1135.4 329.665 1132.97 324.905 1132.97Z" fill="#E6E6E6"/>
<path d="M393.333 1132.97H372.019C367.259 1132.97 362.694 1135.4 359.328 1139.72C355.962 1144.04 354.071 1149.91 354.071 1156.02C354.071 1162.13 355.962 1167.99 359.328 1172.32C362.694 1176.64 367.259 1179.07 372.019 1179.07H393.333C398.093 1179.07 402.658 1176.64 406.024 1172.32C409.39 1167.99 411.281 1162.13 411.281 1156.02C411.281 1149.91 409.39 1144.04 406.024 1139.72C402.658 1135.4 398.093 1132.97 393.333 1132.97Z" fill="#0D6EFD"/>
<path d="M461.76 1132.97H440.447C435.687 1132.97 431.121 1135.4 427.755 1139.72C424.39 1144.04 422.499 1149.91 422.499 1156.02C422.499 1162.13 424.39 1167.99 427.755 1172.32C431.121 1176.64 435.687 1179.07 440.447 1179.07H461.76C466.521 1179.07 471.086 1176.64 474.452 1172.32C477.818 1167.99 479.709 1162.13 479.709 1156.02C479.709 1149.91 477.818 1144.04 474.452 1139.72C471.086 1135.4 466.521 1132.97 461.76 1132.97Z" fill="#E6E6E6"/>
<path d="M530.188 1132.97H508.875C504.115 1132.97 499.549 1135.4 496.183 1139.72C492.817 1144.04 490.926 1149.91 490.926 1156.02C490.926 1162.13 492.817 1167.99 496.183 1172.32C499.549 1176.64 504.115 1179.07 508.875 1179.07H530.188C534.948 1179.07 539.514 1176.64 542.88 1172.32C546.246 1167.99 548.137 1162.13 548.137 1156.02C548.137 1149.91 546.246 1144.04 542.88 1139.72C539.514 1135.4 534.948 1132.97 530.188 1132.97Z" fill="#E6E6E6"/>
<path d="M598.616 1132.97H577.303C572.542 1132.97 567.977 1135.4 564.611 1139.72C561.245 1144.04 559.354 1149.91 559.354 1156.02C559.354 1162.13 561.245 1167.99 564.611 1172.32C567.977 1176.64 572.542 1179.07 577.303 1179.07H598.616C603.376 1179.07 607.942 1176.64 611.308 1172.32C614.673 1167.99 616.564 1162.13 616.564 1156.02C616.564 1149.91 614.673 1144.04 611.308 1139.72C607.942 1135.4 603.376 1132.97 598.616 1132.97Z" fill="#E6E6E6"/>
<path d="M667.044 1132.97H645.73C640.97 1132.97 636.405 1135.4 633.039 1139.72C629.673 1144.04 627.782 1149.91 627.782 1156.02C627.782 1162.13 629.673 1167.99 633.039 1172.32C636.405 1176.64 640.97 1179.07 645.73 1179.07H667.044C671.804 1179.07 676.369 1176.64 679.735 1172.32C683.101 1167.99 684.992 1162.13 684.992 1156.02C684.992 1149.91 683.101 1144.04 679.735 1139.72C676.369 1135.4 671.804 1132.97 667.044 1132.97Z" fill="#E6E6E6"/>
<path d="M735.472 1132.97H714.158C709.398 1132.97 704.833 1135.4 701.467 1139.72C698.101 1144.04 696.21 1149.91 696.21 1156.02C696.21 1162.13 698.101 1167.99 701.467 1172.32C704.833 1176.64 709.398 1179.07 714.158 1179.07H735.472C740.232 1179.07 744.797 1176.64 748.163 1172.32C751.529 1167.99 753.42 1162.13 753.42 1156.02C753.42 1149.91 751.529 1144.04 748.163 1139.72C744.797 1135.4 740.232 1132.97 735.472 1132.97Z" fill="#E6E6E6"/>
<path d="M803.9 1132.97H782.586C777.826 1132.97 773.261 1135.4 769.895 1139.72C766.529 1144.04 764.638 1149.91 764.638 1156.02C764.638 1162.13 766.529 1167.99 769.895 1172.32C773.261 1176.64 777.826 1179.07 782.586 1179.07H803.9C808.66 1179.07 813.225 1176.64 816.591 1172.32C819.957 1167.99 821.848 1162.13 821.848 1156.02C821.848 1149.91 819.957 1144.04 816.591 1139.72C813.225 1135.4 808.66 1132.97 803.9 1132.97Z" fill="#E6E6E6"/>
<path d="M288.447 1182.67H267.134C262.373 1182.67 257.808 1185.1 254.442 1189.42C251.076 1193.74 249.185 1199.6 249.185 1205.72C249.185 1211.83 251.076 1217.69 254.442 1222.01C257.808 1226.34 262.373 1228.76 267.134 1228.76H288.447C293.207 1228.76 297.773 1226.34 301.139 1222.01C304.505 1217.69 306.396 1211.83 306.396 1205.72C306.396 1199.6 304.505 1193.74 301.139 1189.42C297.773 1185.1 293.207 1182.67 288.447 1182.67Z" fill="#E6E6E6"/>
<path d="M356.875 1182.67H335.562C330.801 1182.67 326.236 1185.1 322.87 1189.42C319.504 1193.74 317.613 1199.6 317.613 1205.72C317.613 1211.83 319.504 1217.69 322.87 1222.01C326.236 1226.34 330.801 1228.76 335.562 1228.76H356.875C361.635 1228.76 366.201 1226.34 369.567 1222.01C372.932 1217.69 374.823 1211.83 374.823 1205.72C374.823 1199.6 372.932 1193.74 369.567 1189.42C366.201 1185.1 361.635 1182.67 356.875 1182.67Z" fill="#E6E6E6"/>
<path d="M425.303 1182.67H403.989C399.229 1182.67 394.664 1185.1 391.298 1189.42C387.932 1193.74 386.041 1199.6 386.041 1205.72C386.041 1211.83 387.932 1217.69 391.298 1222.01C394.664 1226.34 399.229 1228.76 403.989 1228.76H425.303C430.063 1228.76 434.628 1226.34 437.994 1222.01C441.36 1217.69 443.251 1211.83 443.251 1205.72C443.251 1199.6 441.36 1193.74 437.994 1189.42C434.628 1185.1 430.063 1182.67 425.303 1182.67Z" fill="#E6E6E6"/>
<path d="M493.731 1182.67H472.417C467.657 1182.67 463.092 1185.1 459.726 1189.42C456.36 1193.74 454.469 1199.6 454.469 1205.72C454.469 1211.83 456.36 1217.69 459.726 1222.01C463.092 1226.34 467.657 1228.76 472.417 1228.76H493.731C498.491 1228.76 503.056 1226.34 506.422 1222.01C509.788 1217.69 511.679 1211.83 511.679 1205.72C511.679 1199.6 509.788 1193.74 506.422 1189.42C503.056 1185.1 498.491 1182.67 493.731 1182.67Z" fill="#E6E6E6"/>
<path d="M562.159 1182.67H540.845C536.085 1182.67 531.52 1185.1 528.154 1189.42C524.788 1193.74 522.897 1199.6 522.897 1205.72C522.897 1211.83 524.788 1217.69 528.154 1222.01C531.52 1226.34 536.085 1228.76 540.845 1228.76H562.159C566.919 1228.76 571.484 1226.34 574.85 1222.01C578.216 1217.69 580.107 1211.83 580.107 1205.72C580.107 1199.6 578.216 1193.74 574.85 1189.42C571.484 1185.1 566.919 1182.67 562.159 1182.67Z" fill="#E6E6E6"/>
<path d="M630.587 1182.67H609.273C604.513 1182.67 599.948 1185.1 596.582 1189.42C593.216 1193.74 591.325 1199.6 591.325 1205.72C591.325 1211.83 593.216 1217.69 596.582 1222.01C599.948 1226.34 604.513 1228.76 609.273 1228.76H630.587C635.347 1228.76 639.912 1226.34 643.278 1222.01C646.644 1217.69 648.535 1211.83 648.535 1205.72C648.535 1199.6 646.644 1193.74 643.278 1189.42C639.912 1185.1 635.347 1182.67 630.587 1182.67Z" fill="#E6E6E6"/>
<path d="M699.014 1182.67H677.701C672.941 1182.67 668.375 1185.1 665.009 1189.42C661.643 1193.74 659.752 1199.6 659.752 1205.72C659.752 1211.83 661.643 1217.69 665.009 1222.01C668.375 1226.34 672.941 1228.76 677.701 1228.76H699.014C703.775 1228.76 708.34 1226.34 711.706 1222.01C715.072 1217.69 716.963 1211.83 716.963 1205.72C716.963 1199.6 715.072 1193.74 711.706 1189.42C708.34 1185.1 703.775 1182.67 699.014 1182.67Z" fill="#E6E6E6"/>
<path d="M767.442 1182.67H746.129C741.369 1182.67 736.803 1185.1 733.437 1189.42C730.071 1193.74 728.18 1199.6 728.18 1205.72C728.18 1211.83 730.071 1217.69 733.437 1222.01C736.803 1226.34 741.369 1228.76 746.129 1228.76H767.442C772.202 1228.76 776.768 1226.34 780.134 1222.01C783.5 1217.69 785.391 1211.83 785.391 1205.72C785.391 1199.6 783.5 1193.74 780.134 1189.42C776.768 1185.1 772.202 1182.67 767.442 1182.67Z" fill="#E6E6E6"/>
<path d="M835.87 1182.67H814.557C809.796 1182.67 805.231 1185.1 801.865 1189.42C798.499 1193.74 796.608 1199.6 796.608 1205.72C796.608 1211.83 798.499 1217.69 801.865 1222.01C805.231 1226.34 809.796 1228.76 814.557 1228.76H835.87C840.63 1228.76 845.196 1226.34 848.562 1222.01C851.928 1217.69 853.819 1211.83 853.819 1205.72C853.819 1199.6 851.928 1193.74 848.562 1189.42C845.196 1185.1 840.63 1182.67 835.87 1182.67Z" fill="#E6E6E6"/>
<path d="M756.933 1079.67H314.1C307.076 1079.66 300.342 1076.08 295.375 1069.7C290.408 1063.32 287.614 1054.67 287.606 1045.65L287.635 1045.33C303.301 958.281 303.295 849.159 287.616 701.912L287.606 701.716C287.614 692.696 290.408 684.049 295.375 677.67C300.342 671.292 307.076 667.705 314.1 667.694H756.933C763.958 667.705 770.692 671.292 775.659 677.671C780.626 684.049 783.42 692.696 783.428 701.716L783.403 702.017C764.455 815.168 764.455 932.199 783.403 1045.35L783.428 1045.65C783.42 1054.67 780.626 1063.32 775.659 1069.7C770.692 1076.08 763.958 1079.66 756.933 1079.67V1079.67Z" fill="white"/>
<path d="M756.933 1079.67H314.1C307.076 1079.66 300.342 1076.08 295.375 1069.7C290.408 1063.32 287.614 1054.67 287.606 1045.65L287.635 1045.33C303.301 958.281 303.295 849.159 287.616 701.912L287.606 701.716C287.614 692.696 290.408 684.049 295.375 677.67C300.342 671.292 307.076 667.705 314.1 667.694H756.933C763.958 667.705 770.692 671.292 775.659 677.671C780.626 684.049 783.42 692.696 783.428 701.716L783.403 702.017C764.455 815.168 764.455 932.199 783.403 1045.35L783.428 1045.65C783.42 1054.67 780.626 1063.32 775.659 1069.7C770.692 1076.08 763.958 1079.66 756.933 1079.67V1079.67ZM289.85 1045.81C289.891 1054.04 292.463 1061.91 297.005 1067.72C301.548 1073.52 307.692 1076.78 314.1 1076.79H756.933C763.343 1076.78 769.489 1073.52 774.032 1067.71C778.574 1061.91 781.145 1054.03 781.184 1045.8C762.202 932.351 762.202 815.017 781.184 701.566C781.145 693.336 778.574 685.459 774.032 679.654C769.489 673.848 763.343 670.585 756.933 670.575H314.1C307.684 670.585 301.531 673.855 296.987 679.672C292.443 685.489 289.877 693.38 289.849 701.619C305.546 849.08 305.547 958.465 289.85 1045.81Z" fill="#E6E6E6"/>
<path d="M710.512 769.249H352.668C350.735 769.249 348.88 768.262 347.513 766.506C346.145 764.75 345.377 762.369 345.377 759.886C345.377 757.402 346.145 755.021 347.513 753.265C348.88 751.509 350.735 750.522 352.668 750.522H710.512C712.446 750.522 714.301 751.509 715.668 753.265C717.036 755.021 717.804 757.402 717.804 759.886C717.804 762.369 717.036 764.75 715.668 766.506C714.301 768.262 712.446 769.249 710.512 769.249V769.249Z" fill="#E6E6E6"/>
<path d="M710.512 814.624H352.668C350.735 814.624 348.88 813.638 347.513 811.882C346.145 810.126 345.377 807.744 345.377 805.261C345.377 802.778 346.145 800.396 347.513 798.64C348.88 796.884 350.735 795.898 352.668 795.898H710.512C712.446 795.898 714.301 796.884 715.668 798.64C717.036 800.396 717.804 802.778 717.804 805.261C717.804 807.744 717.036 810.126 715.668 811.882C714.301 813.638 712.446 814.624 710.512 814.624V814.624Z" fill="#E6E6E6"/>
<path d="M710.512 859.999H352.668C350.735 859.999 348.88 859.013 347.513 857.257C346.145 855.501 345.377 853.119 345.377 850.636C345.377 848.153 346.145 845.771 347.513 844.015C348.88 842.259 350.735 841.273 352.668 841.273H710.512C712.446 841.273 714.301 842.259 715.668 844.015C717.036 845.771 717.804 848.153 717.804 850.636C717.804 853.119 717.036 855.501 715.668 857.257C714.301 859.013 712.446 859.999 710.512 859.999V859.999Z" fill="#E6E6E6"/>
<path d="M710.512 905.375H352.668C350.735 905.375 348.88 904.388 347.513 902.632C346.145 900.876 345.377 898.495 345.377 896.011C345.377 893.528 346.145 891.147 347.513 889.391C348.88 887.635 350.735 886.648 352.668 886.648H710.512C712.446 886.648 714.301 887.635 715.668 889.391C717.036 891.147 717.804 893.528 717.804 896.011C717.804 898.495 717.036 900.876 715.668 902.632C714.301 904.388 712.446 905.375 710.512 905.375V905.375Z" fill="#E6E6E6"/>
<path d="M710.512 950.75H352.668C350.735 950.75 348.88 949.763 347.513 948.008C346.145 946.252 345.377 943.87 345.377 941.387C345.377 938.904 346.145 936.522 347.513 934.766C348.88 933.01 350.735 932.024 352.668 932.024H710.512C712.446 932.024 714.301 933.01 715.668 934.766C717.036 936.522 717.804 938.904 717.804 941.387C717.804 943.87 717.036 946.252 715.668 948.008C714.301 949.763 712.446 950.75 710.512 950.75V950.75Z" fill="#E6E6E6"/>
<path d="M513.081 996.125H352.668C350.735 996.125 348.88 995.139 347.513 993.383C346.145 991.627 345.377 989.245 345.377 986.762C345.377 984.279 346.145 981.897 347.513 980.141C348.88 978.385 350.735 977.399 352.668 977.399H513.081C515.015 977.399 516.87 978.385 518.237 980.141C519.605 981.897 520.373 984.279 520.373 986.762C520.373 989.245 519.605 991.627 518.237 993.383C516.87 995.139 515.015 996.125 513.081 996.125V996.125Z" fill="#0D6EFD"/>
<path d="M533.477 1067.43H503.948C503.5 1067.42 503.059 1067.29 502.657 1067.03C502.256 1066.78 501.904 1066.41 501.628 1065.96C501.302 1065.43 501.072 1064.81 500.956 1064.15C500.839 1063.49 500.839 1062.8 500.954 1062.14L514.849 981.407C514.96 980.501 515.316 979.674 515.855 979.072C516.394 978.471 517.081 978.133 517.795 978.119C518.509 978.105 519.204 978.416 519.757 978.996C520.31 979.576 520.686 980.389 520.818 981.29L536.45 1062.02C536.581 1062.69 536.593 1063.39 536.485 1064.06C536.376 1064.74 536.151 1065.37 535.825 1065.92C535.55 1066.38 535.195 1066.76 534.788 1067.02C534.381 1067.29 533.932 1067.42 533.477 1067.43Z" fill="#E6E6E6"/>
<path d="M904.579 1097.68H166.455C162.438 1097.68 158.587 1095.63 155.747 1091.98C152.907 1088.34 151.311 1083.39 151.311 1078.23C151.311 1073.08 152.907 1068.13 155.747 1064.48C158.587 1060.84 162.438 1058.79 166.455 1058.79H904.579C908.595 1058.79 912.447 1060.84 915.287 1064.48C918.127 1068.13 919.722 1073.08 919.722 1078.23C919.722 1083.39 918.127 1088.34 915.287 1091.98C912.447 1095.63 908.595 1097.68 904.579 1097.68V1097.68Z" fill="#F2F2F2"/>
<path d="M811.108 1048.98L800.337 1048.98L795.214 995.631L811.111 995.633L811.108 1048.98Z" fill="#FFB6B6"/>
<path d="M813.855 1062.39L779.126 1062.39V1061.82C779.126 1057.22 780.55 1052.8 783.085 1049.55C785.62 1046.29 789.058 1044.46 792.643 1044.46H792.644L798.988 1038.28L810.824 1044.46L813.856 1044.46L813.855 1062.39Z" fill="#2F2E41"/>
<path d="M908.43 1031L898.79 1037.17L875.671 992.357L889.899 983.251L908.43 1031Z" fill="#FFB6B6"/>
<path d="M915.546 1041.42L884.463 1061.32L884.267 1060.81C882.668 1056.69 882.409 1051.92 883.547 1047.56C884.685 1043.19 887.126 1039.59 890.335 1037.53L890.336 1037.53L893.866 1028.37L906.607 1027.12L909.32 1025.38L915.546 1041.42Z" fill="#2F2E41"/>
<path d="M806.336 806.69L865.728 809.36L870.169 819.95C870.169 819.95 874.82 863.279 872.438 866.338C870.056 869.397 868.865 869.397 870.056 874.75C871.247 880.103 874.326 931.249 874.326 931.249C874.326 931.249 898.861 996.598 900.052 1000.42C901.243 1004.25 902.434 1002.72 901.243 1004.25C900.188 1005.71 899.194 1007.24 898.265 1008.83H878.854C878.854 1008.83 868.402 974.978 858.835 961.883C850.386 950.321 845.036 935.595 843.565 919.853L835.516 870.926L818.246 945.868C818.246 945.868 815.269 1020.04 815.864 1023.87L816.46 1027.69L793.581 1028.02C793.581 1028.02 791.199 1021.57 792.39 1019.28C793.581 1016.99 793.509 1017.61 792.056 1013.86C790.603 1010.1 791.199 1003.74 791.199 1003.74C791.199 1003.74 799.786 853.338 799.786 851.044C799.83 849.863 799.661 848.685 799.291 847.603V844.489L801.572 833.455L806.336 806.69Z" fill="#2F2E41"/>
<path d="M831.944 668.314C828.078 671.265 825.765 676.688 824.438 682.206C821.98 692.421 820.501 702.983 820.032 713.659L818.63 745.618C817.932 766.243 813.464 786.368 805.587 804.366C805.003 805.736 804.67 807.26 804.613 808.82C804.557 810.381 804.778 811.937 805.26 813.371C805.743 814.805 806.474 816.079 807.397 817.096C808.321 818.113 809.413 818.845 810.59 819.239C832.116 826.492 872.885 817.385 872.885 817.385C872.885 817.385 874.622 816.642 872.885 814.412C871.149 812.182 867.253 801.032 867.253 801.032L871.884 761.971L877.672 683.18C870.726 672.031 856.756 665.458 856.756 665.458L853.147 657.115L835.099 658.969L831.944 668.314Z" fill="#0D6EFD"/>
<path d="M843.4 652.266C852.975 652.266 860.737 642.299 860.737 630.003C860.737 617.707 852.975 607.74 843.4 607.74C833.825 607.74 826.063 617.707 826.063 630.003C826.063 642.299 833.825 652.266 843.4 652.266Z" fill="#FFB8B8"/>
<path d="M864.762 628.681C863.988 633.192 862.592 637.488 860.639 641.367C860.12 642.69 859.346 643.819 858.39 644.647C857.905 645.046 857.328 645.214 856.757 645.122C856.186 645.031 855.658 644.685 855.266 644.145L854.844 643.704C855.671 643.049 856.41 642.226 857.031 641.267C857.338 640.786 857.552 640.217 857.654 639.608C857.755 638.999 857.743 638.368 857.616 637.767C857.467 637.174 857.144 636.679 856.716 636.385C856.287 636.092 855.787 636.023 855.32 636.193C854.305 636.704 853.688 638.589 852.626 638.299C851.767 638.058 851.587 636.604 851.587 635.46C851.618 629.483 849.369 620.989 847.628 621.25C845.868 621.373 844.106 621.07 842.434 620.357C840.76 619.643 838.993 619.353 837.233 619.505C837.108 619.525 836.983 619.555 836.85 619.585C836.568 618.449 836.18 617.362 835.694 616.346C835.749 617.572 835.702 618.803 835.554 620.016C834.153 620.758 832.705 621.345 831.227 621.771C829.618 622.062 826.08 628.24 825.916 627.608C825.634 626.472 825.246 625.385 824.76 624.369C824.815 625.595 824.768 626.826 824.62 628.039C824.612 628.089 824.612 628.129 824.604 628.18C823.823 626.846 823.347 625.221 823.612 626.465C820.996 618.863 822.011 613.417 826.127 607.009C826.929 605.631 827.991 604.537 829.212 603.83C829.824 603.485 830.494 603.348 831.159 603.432C831.824 603.516 832.46 603.819 833.008 604.311C834.686 602.335 836.746 600.971 838.973 600.361C841.201 599.751 843.515 599.917 845.675 600.841C849.963 602.757 853.266 603.88 853.922 609.657C855.711 609.405 857.519 609.809 859.137 610.82C860.755 611.832 862.118 613.41 863.068 615.373C864.916 619.377 865.521 624.129 864.762 628.681V628.681Z" fill="#2F2E41"/>
<path d="M883.265 773.352L883.293 728.654L858.803 731.002L866.024 759.193L843.841 810.217C842.202 810.689 840.706 811.764 839.534 813.31C838.362 814.855 837.566 816.806 837.242 818.922C836.919 821.039 837.082 823.231 837.712 825.231C838.341 827.231 839.411 828.952 840.789 830.185C842.168 831.418 843.796 832.109 845.475 832.174C847.154 832.24 848.811 831.676 850.245 830.553C851.679 829.429 852.828 827.794 853.551 825.847C854.274 823.9 854.54 821.724 854.317 819.586L883.265 773.352Z" fill="#FFB6B6"/>
<path d="M875.93 681.082C885.514 686.382 887.68 766.437 885.526 765.983C879.403 764.692 867.114 757.206 863.441 759.423C861.34 760.692 859.03 737.727 859.03 737.727C859.03 737.727 856.804 724.869 854.197 708.253C853.392 703.573 853.522 698.708 854.575 694.11C855.628 689.512 857.57 685.33 860.22 681.955C860.22 681.955 866.346 675.781 875.93 681.082Z" fill="#0D6EFD"/>
<path d="M284.04 1175.02C283.405 1174.28 282.905 1173.36 282.575 1172.34C282.245 1171.33 282.093 1170.23 282.13 1169.12C282.166 1168.02 282.391 1166.94 282.787 1165.96C283.183 1164.99 283.742 1164.13 284.423 1163.46L277.843 1138.01L288.324 1141.62L292.966 1165.24C293.768 1166.78 294.102 1168.65 293.903 1170.49C293.704 1172.33 292.986 1174.01 291.886 1175.22C290.786 1176.43 289.379 1177.07 287.933 1177.03C286.487 1177 285.102 1176.28 284.04 1175.02V1175.02Z" fill="#FFB6B6"/>
<path d="M303.035 1036.74C304.774 1038.02 315.063 1034.85 317.072 1035.75C315.963 1044.44 321.987 1041.18 315.445 1052.59C308.903 1064 295.726 1098.22 292.733 1111.01C289.739 1123.8 292.702 1141.83 292.254 1147.89C292.037 1151.4 292.051 1154.93 292.294 1158.44C288.759 1158.38 285.275 1159.32 281.686 1158.72C277.857 1144.81 275.283 1125.01 273.535 1114.07C271.787 1103.12 271.723 1107.75 272.525 1102.28C273.327 1096.81 273.521 1100.79 272.679 1095.55C271.837 1090.32 275.242 1083.74 278.389 1079.99C279.746 1074.98 281.499 1070.3 282.843 1065.35C292.686 1054.32 293.333 1047.95 303.035 1036.74Z" fill="#3F3D56"/>
<path d="M395.169 1158.89C394.319 1159.04 393.452 1158.96 392.63 1158.64C391.807 1158.32 391.05 1157.77 390.411 1157.03C389.771 1156.3 389.265 1155.39 388.929 1154.37C388.592 1153.36 388.433 1152.26 388.462 1151.16L368.979 1141.5L377.814 1133.41L394.961 1143.82C396.4 1144.01 397.736 1144.86 398.716 1146.23C399.696 1147.6 400.251 1149.38 400.276 1151.23C400.302 1153.09 399.796 1154.9 398.855 1156.31C397.914 1157.72 396.602 1158.63 395.169 1158.89V1158.89Z" fill="#FFB6B6"/>
<path d="M324.105 1052.16C325.98 1051.25 330.613 1039.04 332.432 1037.62C336.952 1044.24 338.821 1036.2 341.525 1049.94C344.228 1063.68 356.427 1098.49 362.213 1109.59C368 1120.68 380.719 1129.2 384.079 1133.5C386.052 1135.95 388.183 1138.18 390.447 1140.16C388.166 1143.63 386.518 1147.68 383.875 1150.86C373.078 1145.82 359.538 1135.78 351.847 1130.56C344.157 1125.34 346.899 1128.34 344.119 1124.07C341.338 1119.8 343.852 1122.13 340.17 1119.64C336.487 1117.15 334.698 1109.59 334.443 1104.09C332.293 1099.56 330.598 1094.85 328.47 1090.36C328.097 1073.6 324.679 1068.91 324.105 1052.16Z" fill="#3F3D56"/>
<path d="M338.765 1127.77L348.489 1183.49L286.181 1178.51L303.124 1123.79L338.765 1127.77Z" fill="#FFB6B6"/>
<path d="M328.39 1384.94L335.389 1384.94L338.718 1350.27H328.389L328.39 1384.94Z" fill="#FFB6B6"/>
<path d="M326.02 1380.5L337.084 1379.65V1385.74L347.603 1395.07C348.122 1395.53 348.513 1396.19 348.719 1396.96C348.925 1397.73 348.935 1398.56 348.747 1399.33C348.559 1400.1 348.183 1400.78 347.675 1401.26C347.166 1401.74 346.551 1402 345.92 1402H332.748L330.478 1395.98L329.591 1402H324.625L326.02 1380.5Z" fill="#2F2E41"/>
<path d="M262.241 1380.47L269.08 1382.37L278.057 1349.4L267.963 1346.59L262.241 1380.47Z" fill="#FFB6B6"/>
<path d="M260.656 1375.49L271.608 1377.67L270.603 1383.62L279.343 1395.6C279.775 1396.19 280.048 1396.94 280.122 1397.75C280.197 1398.55 280.069 1399.37 279.758 1400.07C279.447 1400.78 278.968 1401.34 278.391 1401.67C277.815 1402 277.171 1402.09 276.554 1401.91L263.682 1398.33L262.457 1391.83L260.597 1397.47L255.743 1396.12L260.656 1375.49Z" fill="#2F2E41"/>
<path d="M350.079 1230.08C345.167 1264.75 343.939 1279.72 343.939 1279.72C343.939 1279.72 347.623 1285.23 345.167 1288.38C342.711 1291.54 345.167 1297.84 345.167 1297.84L339.645 1374.26L335.199 1373.33L324.49 1371.12L320.628 1370.32L323.084 1298.63C323.084 1298.63 320.628 1292.32 321.856 1290.74C323.084 1289.17 320.628 1279.72 320.628 1279.72L317.562 1204.87L298.538 1286.81C298.538 1286.81 300.384 1289.96 298.538 1292.32C296.7 1294.68 293.022 1306.5 293.022 1306.5L281.71 1357.34L280.749 1361.65L274.85 1360.23L268.428 1358.68L267.248 1358.4L265.149 1357.89L263.798 1357.56L263.338 1357.46L261.115 1356.92L261.788 1353.09L262.138 1351.07L271.708 1296.49L271.927 1295.23L272.16 1293.9C272.16 1293.9 270.932 1289.96 272.771 1287.59C273.309 1286.87 273.702 1285.99 273.916 1285.03C274.13 1284.07 274.158 1283.05 273.999 1282.08C273.939 1281.99 273.884 1281.91 273.834 1281.81C273.617 1281.43 273.467 1280.99 273.395 1280.53C273.31 1279.79 273.378 1279.03 273.592 1278.33C273.807 1277.64 274.16 1277.03 274.616 1276.56C274.966 1276.08 275.26 1275.54 275.488 1274.96C277.354 1270.42 278.294 1260.81 278.294 1260.81C278.294 1260.81 279.954 1184.69 285.387 1173.06C285.675 1172.45 291.443 1160.78 291.745 1160.55C297.878 1155.82 345.66 1162.35 345.66 1162.35C345.66 1162.35 348.554 1172.33 348.685 1173.37C349.391 1179.21 354.243 1200.68 350.079 1230.08Z" fill="#2F2E41"/>
<path d="M335.56 1046.73C335.56 1046.73 336.594 1039.83 326.659 1027.08C321.4 1024.83 312.286 1026.14 309.127 1027.08C294.517 1051.84 297.133 1047.47 293.33 1061.31C292.326 1064.42 291.967 1067.82 292.289 1071.16C294.042 1082.42 296.888 1140.2 296.304 1143.2C295.719 1146.2 291.629 1149.95 295.719 1149.95C299.81 1149.95 352.565 1148.77 351.397 1146.52C350.228 1144.27 335.56 1046.73 335.56 1046.73Z" fill="#3F3D56"/>
<path d="M319.082 1022.75C328.337 1022.75 335.839 1013.12 335.839 1001.23C335.839 989.348 328.337 979.714 319.082 979.714C309.828 979.714 302.326 989.348 302.326 1001.23C302.326 1013.12 309.828 1022.75 319.082 1022.75Z" fill="#FFB6B6"/>
<path d="M304.886 1009.37C304.794 1011.98 303.521 1014.23 302.537 1016.51C300.823 1020.59 299.908 1025.14 299.872 1029.77C299.836 1034.41 300.68 1038.98 302.331 1043.1C303.699 1046.43 305.593 1049.41 306.678 1052.91C307.201 1054.38 307.465 1055.99 307.453 1057.61C307.442 1059.24 307.154 1060.84 306.61 1062.3C303.673 1058.67 302.24 1060.59 298.905 1057.42C300.216 1062.14 299.098 1062.29 300.415 1067.01C294.754 1069.08 289.092 1071.16 283.427 1073.25C286.905 1069.63 289.361 1064.64 290.419 1059.05C291.477 1053.46 291.078 1047.58 289.284 1042.31C287.213 1036.61 283.512 1031.91 282.165 1025.85C281.431 1022.57 281.444 1019.09 282.203 1015.82C282.961 1012.55 284.433 1009.63 286.444 1007.4C288.455 1005.17 290.921 1003.72 293.551 1003.24C296.18 1002.75 298.863 1003.24 301.282 1004.65C303.187 1003.95 304.978 1006.8 304.886 1009.37Z" fill="#2F2E41"/>
<path d="M325.933 977.115C323.679 970.792 317.734 972.078 312.358 972.912C309.673 973.444 307.13 974.808 304.949 976.887C302.768 978.966 301.014 981.696 299.84 984.841C297.542 991.215 297.103 998.437 298.602 1005.19C299.406 1009.79 301.325 1013.95 304.084 1017.06C306.923 1019.99 320.27 1026.93 321.381 1020.95C319.992 1028.74 316.378 1033.18 320.514 1039.15C322.656 1030.89 331.715 1023.04 333.858 1014.77C334.18 1013.53 332.856 998.91 333.178 997.666C333.858 995.044 334.539 992.417 335.03 989.727C335.647 986.347 335.884 982.471 334.249 979.706C332.614 976.941 328.496 976.834 327.669 980.139" fill="#2F2E41"/>
<path d="M323.235 1003.43L322.519 997.573C323.005 990.291 322.211 978.707 325.933 977.115L328.209 980.037C326.769 980.654 324.031 991.544 323.235 1003.43Z" fill="#FF6584"/>
<path d="M486.464 1402.29C486.465 1402.51 486.43 1402.73 486.363 1402.94C486.297 1403.15 486.198 1403.34 486.074 1403.5C485.95 1403.66 485.803 1403.79 485.641 1403.87C485.478 1403.96 485.305 1404 485.129 1404H170.709C170.355 1404 170.015 1403.82 169.765 1403.5C169.514 1403.18 169.374 1402.74 169.374 1402.29C169.374 1401.83 169.514 1401.4 169.765 1401.07C170.015 1400.75 170.355 1400.57 170.709 1400.57H485.129C485.305 1400.57 485.478 1400.61 485.641 1400.7C485.803 1400.79 485.95 1400.91 486.074 1401.07C486.198 1401.23 486.297 1401.42 486.363 1401.63C486.43 1401.84 486.465 1402.06 486.464 1402.29Z" fill="#CCCCCC"/>
<path d="M651.059 1295.75H419.975C415.214 1295.75 410.649 1298.18 407.283 1302.5C403.917 1306.83 402.026 1312.69 402.026 1318.8C402.026 1324.91 403.917 1330.78 407.283 1335.1C410.649 1339.42 415.214 1341.85 419.975 1341.85H651.059C655.819 1341.85 660.384 1339.42 663.75 1335.1C667.116 1330.78 669.007 1324.91 669.007 1318.8C669.007 1312.69 667.116 1306.83 663.75 1302.5C660.384 1298.18 655.819 1295.75 651.059 1295.75Z" fill="#E6E6E6"/>
</svg>
